<svg width="448" height="458" viewBox="0 0 448 458" fill="none" xmlns="http://www.w3.org/2000/svg">
<rect width="448" height="458" fill="#F26F63"/>
<path d="M438.218 5H0V443.218H438.218V5Z" fill="#F26F63"/>
<path opacity="0.6" d="M359.965 55.8646H78.2534C63.1271 55.8646 50.8647 68.1269 50.8647 83.2533V364.965C50.8647 380.091 63.1271 392.354 78.2534 392.354H359.965C375.092 392.354 387.354 380.091 387.354 364.965V83.2533C387.354 68.1269 375.092 55.8646 359.965 55.8646Z" stroke="#F5A89F" stroke-width="1.46725"/>
<path d="M156.507 60.7554C159.208 60.7554 161.397 58.5657 161.397 55.8646C161.397 53.1635 159.208 50.9738 156.507 50.9738C153.805 50.9738 151.616 53.1635 151.616 55.8646C151.616 58.5657 153.805 60.7554 156.507 60.7554Z" fill="#FDE0DD"/>
<path d="M281.712 60.7554C284.413 60.7554 286.603 58.5657 286.603 55.8646C286.603 53.1635 284.413 50.9738 281.712 50.9738C279.011 50.9738 276.821 53.1635 276.821 55.8646C276.821 58.5657 279.011 60.7554 281.712 60.7554Z" fill="#FDE0DD"/>
<path d="M156.507 397.245C159.208 397.245 161.397 395.055 161.397 392.354C161.397 389.653 159.208 387.463 156.507 387.463C153.805 387.463 151.616 389.653 151.616 392.354C151.616 395.055 153.805 397.245 156.507 397.245Z" fill="#FDE0DD"/>
<path d="M281.712 397.245C284.413 397.245 286.603 395.055 286.603 392.354C286.603 389.653 284.413 387.463 281.712 387.463C279.011 387.463 276.821 389.653 276.821 392.354C276.821 395.055 279.011 397.245 281.712 397.245Z" fill="#FDE0DD"/>
<path d="M50.8647 166.397C53.5658 166.397 55.7555 164.208 55.7555 161.507C55.7555 158.805 53.5658 156.616 50.8647 156.616C48.1636 156.616 45.9739 158.805 45.9739 161.507C45.9739 164.208 48.1636 166.397 50.8647 166.397Z" fill="#FDE0DD"/>
<path d="M50.8647 291.603C53.5658 291.603 55.7555 289.413 55.7555 286.712C55.7555 284.011 53.5658 281.821 50.8647 281.821C48.1636 281.821 45.9739 284.011 45.9739 286.712C45.9739 289.413 48.1636 291.603 50.8647 291.603Z" fill="#FDE0DD"/>
<path d="M387.354 166.397C390.055 166.397 392.245 164.208 392.245 161.507C392.245 158.805 390.055 156.616 387.354 156.616C384.653 156.616 382.463 158.805 382.463 161.507C382.463 164.208 384.653 166.397 387.354 166.397Z" fill="#FDE0DD"/>
<path d="M387.354 291.603C390.055 291.603 392.245 289.413 392.245 286.712C392.245 284.011 390.055 281.821 387.354 281.821C384.653 281.821 382.463 284.011 382.463 286.712C382.463 289.413 384.653 291.603 387.354 291.603Z" fill="#FDE0DD"/>
<path d="M151.616 102.817H67.4934C64.7922 102.817 62.6025 105.006 62.6025 107.707V184.004C62.6025 186.706 64.7922 188.895 67.4934 188.895H151.616C154.317 188.895 156.506 186.706 156.506 184.004V107.707C156.506 105.006 154.317 102.817 151.616 102.817Z" fill="#C4362A"/>
<path d="M78.2533 130.205C81.4946 130.205 84.1223 127.578 84.1223 124.336C84.1223 121.095 81.4946 118.467 78.2533 118.467C75.0119 118.467 72.3843 121.095 72.3843 124.336C72.3843 127.578 75.0119 130.205 78.2533 130.205Z" fill="#FDE0DD"/>
<path opacity="0.5" d="M138.9 120.424H91.9475C90.8671 120.424 89.9912 121.299 89.9912 122.38V126.293C89.9912 127.373 90.8671 128.249 91.9475 128.249H138.9C139.98 128.249 140.856 127.373 140.856 126.293V122.38C140.856 121.299 139.98 120.424 138.9 120.424Z" fill="#F5A89F"/>
<path d="M78.2533 147.812C81.4946 147.812 84.1223 145.185 84.1223 141.943C84.1223 138.702 81.4946 136.074 78.2533 136.074C75.0119 136.074 72.3843 138.702 72.3843 141.943C72.3843 145.185 75.0119 147.812 78.2533 147.812Z" fill="#F26F63" stroke="#FDE0DD" stroke-width="1.1738"/>
<path opacity="0.5" d="M127.162 138.031H91.9475C90.8671 138.031 89.9912 138.906 89.9912 139.987V143.9C89.9912 144.98 90.8671 145.856 91.9475 145.856H127.162C128.242 145.856 129.118 144.98 129.118 143.9V139.987C129.118 138.906 128.242 138.031 127.162 138.031Z" fill="#F5A89F"/>
<path d="M78.2533 165.419C81.4946 165.419 84.1223 162.792 84.1223 159.55C84.1223 156.309 81.4946 153.681 78.2533 153.681C75.0119 153.681 72.3843 156.309 72.3843 159.55C72.3843 162.792 75.0119 165.419 78.2533 165.419Z" fill="#C4362A" stroke="#FDE0DD" stroke-width="1.1738"/>
<path opacity="0.5" d="M134.987 155.638H91.9475C90.8671 155.638 89.9912 156.513 89.9912 157.594V161.507C89.9912 162.587 90.8671 163.463 91.9475 163.463H134.987C136.067 163.463 136.943 162.587 136.943 161.507V157.594C136.943 156.513 136.067 155.638 134.987 155.638Z" fill="#F5A89F"/>
<path opacity="0.6" d="M77.2751 171.288H71.4061C70.8659 171.288 70.428 171.726 70.428 172.266V178.135C70.428 178.676 70.8659 179.114 71.4061 179.114H77.2751C77.8154 179.114 78.2533 178.676 78.2533 178.135V172.266C78.2533 171.726 77.8154 171.288 77.2751 171.288Z" fill="#FDE0DD"/>
<path opacity="0.4" d="M89.0132 171.288H83.1442C82.604 171.288 82.166 171.726 82.166 172.266V178.135C82.166 178.676 82.604 179.114 83.1442 179.114H89.0132C89.5534 179.114 89.9913 178.676 89.9913 178.135V172.266C89.9913 171.726 89.5534 171.288 89.0132 171.288Z" fill="#FDE0DD"/>
<path opacity="0.2" d="M100.751 171.288H94.882C94.3417 171.288 93.9038 171.726 93.9038 172.266V178.135C93.9038 178.676 94.3417 179.114 94.882 179.114H100.751C101.291 179.114 101.729 178.676 101.729 178.135V172.266C101.729 171.726 101.291 171.288 100.751 171.288Z" fill="#FDE0DD"/>
<path opacity="0.5" d="M70.428 116.511H66.5154" stroke="#FDE0DD" stroke-width="0.978166"/>
<path opacity="0.5" d="M66.5154 116.511V179.113" stroke="#FDE0DD" stroke-width="0.978166"/>
<path opacity="0.5" d="M66.5154 179.114H70.428" stroke="#FDE0DD" stroke-width="0.978166"/>
<path d="M151.616 255.411H67.4934C64.7922 255.411 62.6025 257.6 62.6025 260.301V328.773C62.6025 331.474 64.7922 333.664 67.4934 333.664H151.616C154.317 333.664 156.506 331.474 156.506 328.773V260.301C156.506 257.6 154.317 255.411 151.616 255.411Z" fill="#C4362A"/>
<path opacity="0.9" d="M89.0131 269.105H75.3187C74.7785 269.105 74.3406 269.543 74.3406 270.083V273.017C74.3406 273.558 74.7785 273.996 75.3187 273.996H89.0131C89.5533 273.996 89.9912 273.558 89.9912 273.017V270.083C89.9912 269.543 89.5533 269.105 89.0131 269.105Z" fill="#FDE0DD"/>
<path opacity="0.4" d="M139.878 269.105H94.882C94.3417 269.105 93.9038 269.543 93.9038 270.083V273.017C93.9038 273.558 94.3417 273.996 94.882 273.996H139.878C140.418 273.996 140.856 273.558 140.856 273.017V270.083C140.856 269.543 140.418 269.105 139.878 269.105Z" fill="#FDE0DD"/>
<path opacity="0.6" d="M96.8384 280.843H75.3187C74.7785 280.843 74.3406 281.281 74.3406 281.821V284.755C74.3406 285.296 74.7785 285.734 75.3187 285.734H96.8384C97.3786 285.734 97.8166 285.296 97.8166 284.755V281.821C97.8166 281.281 97.3786 280.843 96.8384 280.843Z" fill="#FDE0DD"/>
<path opacity="0.4" d="M135.965 280.843H102.707C102.167 280.843 101.729 281.281 101.729 281.821V284.755C101.729 285.296 102.167 285.734 102.707 285.734H135.965C136.505 285.734 136.943 285.296 136.943 284.755V281.821C136.943 281.281 136.505 280.843 135.965 280.843Z" fill="#FDE0DD"/>
<path opacity="0.9" d="M85.1004 292.581H75.3187C74.7785 292.581 74.3406 293.019 74.3406 293.559V296.493C74.3406 297.034 74.7785 297.472 75.3187 297.472H85.1004C85.6406 297.472 86.0786 297.034 86.0786 296.493V293.559C86.0786 293.019 85.6406 292.581 85.1004 292.581Z" fill="#FDE0DD"/>
<path opacity="0.3" d="M139.878 292.581H90.9694C90.4292 292.581 89.9912 293.019 89.9912 293.559V296.493C89.9912 297.034 90.4292 297.472 90.9694 297.472H139.878C140.418 297.472 140.856 297.034 140.856 296.493V293.559C140.856 293.019 140.418 292.581 139.878 292.581Z" fill="#FDE0DD"/>
<path opacity="0.6" d="M92.9257 304.319H75.3187C74.7785 304.319 74.3406 304.757 74.3406 305.297V308.232C74.3406 308.772 74.7785 309.21 75.3187 309.21H92.9257C93.466 309.21 93.9039 308.772 93.9039 308.232V305.297C93.9039 304.757 93.466 304.319 92.9257 304.319Z" fill="#FDE0DD"/>
<path opacity="0.4" d="M135.965 304.319H98.7948C98.2546 304.319 97.8167 304.757 97.8167 305.297V308.232C97.8167 308.772 98.2546 309.21 98.7948 309.21H135.965C136.505 309.21 136.943 308.772 136.943 308.232V305.297C136.943 304.757 136.505 304.319 135.965 304.319Z" fill="#FDE0DD"/>
<path opacity="0.9" d="M79.2314 316.057H75.3187C74.7785 316.057 74.3406 316.495 74.3406 317.035V321.926C74.3406 322.466 74.7785 322.904 75.3187 322.904H79.2314C79.7716 322.904 80.2096 322.466 80.2096 321.926V317.035C80.2096 316.495 79.7716 316.057 79.2314 316.057Z" fill="#FDE0DD"/>
<path opacity="0.7" d="M68.4715 274.485C69.8221 274.485 70.917 273.39 70.917 272.039C70.917 270.689 69.8221 269.594 68.4715 269.594C67.121 269.594 66.0261 270.689 66.0261 272.039C66.0261 273.39 67.121 274.485 68.4715 274.485Z" fill="#FDE0DD"/>
<path opacity="0.5" d="M68.4715 286.223C69.8221 286.223 70.917 285.128 70.917 283.777C70.917 282.427 69.8221 281.332 68.4715 281.332C67.121 281.332 66.0261 282.427 66.0261 283.777C66.0261 285.128 67.121 286.223 68.4715 286.223Z" fill="#FDE0DD"/>
<path opacity="0.5" d="M68.4715 297.961C69.8221 297.961 70.917 296.866 70.917 295.515C70.917 294.165 69.8221 293.07 68.4715 293.07C67.121 293.07 66.0261 294.165 66.0261 295.515C66.0261 296.866 67.121 297.961 68.4715 297.961Z" fill="#FDE0DD"/>
<path opacity="0.5" d="M68.4715 309.699C69.8221 309.699 70.917 308.604 70.917 307.253C70.917 305.903 69.8221 304.808 68.4715 304.808C67.121 304.808 66.0261 305.903 66.0261 307.253C66.0261 308.604 67.121 309.699 68.4715 309.699Z" fill="#FDE0DD"/>
<path d="M109.555 188.895V255.411" stroke="#F5A89F" stroke-width="1.46725" stroke-linecap="round"/>
<path d="M109.555 226.066C111.715 226.066 113.467 224.314 113.467 222.153C113.467 219.992 111.715 218.24 109.555 218.24C107.394 218.24 105.642 219.992 105.642 222.153C105.642 224.314 107.394 226.066 109.555 226.066Z" fill="#F5A89F"/>
<path d="M156.507 145.856H187.808V214.328H195.633" stroke="#F5A89F" stroke-width="1.46725" stroke-linecap="round" stroke-linejoin="round"/>
<path d="M187.808 149.28C189.699 149.28 191.231 147.747 191.231 145.856C191.231 143.965 189.699 142.432 187.808 142.432C185.917 142.432 184.384 143.965 184.384 145.856C184.384 147.747 185.917 149.28 187.808 149.28Z" fill="#F5A89F"/>
<path d="M168.244 148.301C169.595 148.301 170.69 147.207 170.69 145.856C170.69 144.505 169.595 143.411 168.244 143.411C166.894 143.411 165.799 144.505 165.799 145.856C165.799 147.207 166.894 148.301 168.244 148.301Z" fill="#FDE0DD"/>
<path d="M178.026 148.301C179.377 148.301 180.472 147.207 180.472 145.856C180.472 144.505 179.377 143.411 178.026 143.411C176.676 143.411 175.581 144.505 175.581 145.856C175.581 147.207 176.676 148.301 178.026 148.301Z" fill="#FDE0DD"/>
<path d="M156.507 294.537H189.764V243.672H195.633" stroke="#F5A89F" stroke-width="1.46725" stroke-linecap="round" stroke-linejoin="round"/>
<path d="M189.764 297.961C191.655 297.961 193.188 296.428 193.188 294.537C193.188 292.646 191.655 291.114 189.764 291.114C187.873 291.114 186.341 292.646 186.341 294.537C186.341 296.428 187.873 297.961 189.764 297.961Z" fill="#F5A89F"/>
<path d="M168.244 296.983C169.595 296.983 170.69 295.888 170.69 294.537C170.69 293.187 169.595 292.092 168.244 292.092C166.894 292.092 165.799 293.187 165.799 294.537C165.799 295.888 166.894 296.983 168.244 296.983Z" fill="#FDE0DD"/>
<path d="M179.004 296.983C180.355 296.983 181.45 295.888 181.45 294.537C181.45 293.187 180.355 292.092 179.004 292.092C177.654 292.092 176.559 293.187 176.559 294.537C176.559 295.888 177.654 296.983 179.004 296.983Z" fill="#FDE0DD"/>
<path d="M275.843 186.939H201.502C198.261 186.939 195.633 189.566 195.633 192.808V267.148C195.633 270.39 198.261 273.017 201.502 273.017H275.843C279.084 273.017 281.712 270.39 281.712 267.148V192.808C281.712 189.566 279.084 186.939 275.843 186.939Z" fill="#C4362A"/>
<path opacity="0.5" d="M273.887 190.852H203.459C201.298 190.852 199.546 192.603 199.546 194.764V265.192C199.546 267.353 201.298 269.105 203.459 269.105H273.887C276.047 269.105 277.799 267.353 277.799 265.192V194.764C277.799 192.603 276.047 190.852 273.887 190.852Z" stroke="#F5A89F" stroke-width="0.978166"/>
<path d="M229.869 202.589H214.218C212.598 202.589 211.284 203.903 211.284 205.524V221.175C211.284 222.795 212.598 224.109 214.218 224.109H229.869C231.49 224.109 232.804 222.795 232.804 221.175V205.524C232.804 203.903 231.49 202.589 229.869 202.589Z" fill="#F26F63" stroke="#FDE0DD" stroke-width="0.978166"/>
<path d="M259.214 202.589H243.563C241.943 202.589 240.629 203.903 240.629 205.524V221.175C240.629 222.795 241.943 224.109 243.563 224.109H259.214C260.835 224.109 262.149 222.795 262.149 221.175V205.524C262.149 203.903 260.835 202.589 259.214 202.589Z" fill="#F26F63" stroke="#FDE0DD" stroke-width="0.978166"/>
<path d="M229.869 231.934H214.218C212.598 231.934 211.284 233.248 211.284 234.869V250.52C211.284 252.14 212.598 253.454 214.218 253.454H229.869C231.49 253.454 232.804 252.14 232.804 250.52V234.869C232.804 233.248 231.49 231.934 229.869 231.934Z" fill="#F26F63" stroke="#FDE0DD" stroke-width="0.978166"/>
<path d="M259.214 231.934H243.563C241.943 231.934 240.629 233.248 240.629 234.869V250.52C240.629 252.14 241.943 253.454 243.563 253.454H259.214C260.835 253.454 262.149 252.14 262.149 250.52V234.869C262.149 233.248 260.835 231.934 259.214 231.934Z" fill="#F26F63" stroke="#FDE0DD" stroke-width="0.978166"/>
<path opacity="0.9" d="M222.044 217.262C224.205 217.262 225.956 215.51 225.956 213.349C225.956 211.188 224.205 209.437 222.044 209.437C219.883 209.437 218.131 211.188 218.131 213.349C218.131 215.51 219.883 217.262 222.044 217.262Z" fill="#FDE0DD"/>
<path opacity="0.6" d="M251.389 217.262C253.55 217.262 255.301 215.51 255.301 213.349C255.301 211.188 253.55 209.437 251.389 209.437C249.228 209.437 247.476 211.188 247.476 213.349C247.476 215.51 249.228 217.262 251.389 217.262Z" fill="#FDE0DD"/>
<path opacity="0.6" d="M222.044 246.607C224.205 246.607 225.956 244.855 225.956 242.694C225.956 240.533 224.205 238.782 222.044 238.782C219.883 238.782 218.131 240.533 218.131 242.694C218.131 244.855 219.883 246.607 222.044 246.607Z" fill="#FDE0DD"/>
<path opacity="0.9" d="M251.389 246.607C253.55 246.607 255.301 244.855 255.301 242.694C255.301 240.533 253.55 238.782 251.389 238.782C249.228 238.782 247.476 240.533 247.476 242.694C247.476 244.855 249.228 246.607 251.389 246.607Z" fill="#FDE0DD"/>
<path opacity="0.4" d="M238.672 202.589V253.454" stroke="#F5A89F" stroke-width="0.782533"/>
<path opacity="0.4" d="M211.284 228.022H262.149" stroke="#F5A89F" stroke-width="0.782533"/>
<path d="M281.712 210.415H309.101V153.681H340.402" stroke="#F5A89F" stroke-width="1.46725" stroke-linecap="round" stroke-linejoin="round"/>
<path d="M309.1 213.838C310.991 213.838 312.524 212.306 312.524 210.415C312.524 208.524 310.991 206.991 309.1 206.991C307.21 206.991 305.677 208.524 305.677 210.415C305.677 212.306 307.21 213.838 309.1 213.838Z" fill="#F5A89F"/>
<path d="M293.45 212.86C294.8 212.86 295.895 211.765 295.895 210.415C295.895 209.064 294.8 207.969 293.45 207.969C292.099 207.969 291.004 209.064 291.004 210.415C291.004 211.765 292.099 212.86 293.45 212.86Z" fill="#FDE0DD"/>
<path opacity="0.5" d="M303.232 212.86C304.582 212.86 305.677 211.765 305.677 210.415C305.677 209.064 304.582 207.969 303.232 207.969C301.881 207.969 300.786 209.064 300.786 210.415C300.786 211.765 301.881 212.86 303.232 212.86Z" fill="#FDE0DD"/>
<path d="M281.712 247.585H324.751V308.231H340.402" stroke="#F5A89F" stroke-width="1.46725" stroke-linecap="round" stroke-linejoin="round"/>
<path d="M324.751 251.009C326.642 251.009 328.175 249.476 328.175 247.585C328.175 245.694 326.642 244.162 324.751 244.162C322.86 244.162 321.328 245.694 321.328 247.585C321.328 249.476 322.86 251.009 324.751 251.009Z" fill="#F5A89F"/>
<path d="M298.341 250.031C299.691 250.031 300.786 248.936 300.786 247.585C300.786 246.235 299.691 245.14 298.341 245.14C296.99 245.14 295.895 246.235 295.895 247.585C295.895 248.936 296.99 250.031 298.341 250.031Z" fill="#FDE0DD"/>
<path opacity="0.5" d="M310.079 250.031C311.429 250.031 312.524 248.936 312.524 247.585C312.524 246.235 311.429 245.14 310.079 245.14C308.728 245.14 307.633 246.235 307.633 247.585C307.633 248.936 308.728 250.031 310.079 250.031Z" fill="#FDE0DD"/>
<path d="M417.677 120.424H345.293C342.592 120.424 340.402 122.613 340.402 125.314V184.004C340.402 186.705 342.592 188.895 345.293 188.895H417.677C420.378 188.895 422.568 186.705 422.568 184.004V125.314C422.568 122.613 420.378 120.424 417.677 120.424Z" fill="#C4362A"/>
<path d="M381.485 159.55C384.186 159.55 386.375 157.361 386.375 154.659C386.375 151.958 384.186 149.769 381.485 149.769C378.783 149.769 376.594 151.958 376.594 154.659C376.594 157.361 378.783 159.55 381.485 159.55Z" fill="#FDE0DD"/>
<path opacity="0.8" d="M381.485 162.485C393.37 162.485 403.004 158.981 403.004 154.659C403.004 150.338 393.37 146.834 381.485 146.834C369.6 146.834 359.965 150.338 359.965 154.659C359.965 158.981 369.6 162.485 381.485 162.485Z" stroke="#FDE0DD" stroke-width="1.27162"/>
<path opacity="0.6" d="M374.708 158.572C380.65 168.865 388.502 175.457 392.244 173.296C395.987 171.135 394.204 161.039 388.262 150.747C382.319 140.454 374.468 133.862 370.725 136.023C366.982 138.184 368.765 148.279 374.708 158.572Z" stroke="#FDE0DD" stroke-width="1.27162"/>
<path opacity="0.6" d="M388.262 158.572C394.204 148.279 395.987 138.184 392.245 136.023C388.502 133.862 380.65 140.454 374.708 150.747C368.765 161.039 366.982 171.135 370.725 173.296C374.468 175.457 382.319 168.865 388.262 158.572Z" stroke="#FDE0DD" stroke-width="1.27162"/>
<path d="M417.677 280.843H345.293C342.592 280.843 340.402 283.032 340.402 285.734V344.424C340.402 347.125 342.592 349.314 345.293 349.314H417.677C420.378 349.314 422.568 347.125 422.568 344.424V285.734C422.568 283.032 420.378 280.843 417.677 280.843Z" fill="#C4362A"/>
<path opacity="0.9" d="M391.266 285.625L373.659 313.013H383.441L371.703 344.314L393.223 311.057H381.485L391.266 285.625Z" fill="#FDE0DD"/>
<path opacity="0.6" d="M403.004 298.939C404.355 298.939 405.45 297.844 405.45 296.494C405.45 295.143 404.355 294.048 403.004 294.048C401.654 294.048 400.559 295.143 400.559 296.494C400.559 297.844 401.654 298.939 403.004 298.939Z" fill="#FDE0DD"/>
<path opacity="0.4" d="M406.917 310.188C407.997 310.188 408.873 309.312 408.873 308.231C408.873 307.151 407.997 306.275 406.917 306.275C405.837 306.275 404.961 307.151 404.961 308.231C404.961 309.312 405.837 310.188 406.917 310.188Z" fill="#FDE0DD"/>
<path opacity="0.6" d="M359.965 343.935C361.316 343.935 362.41 342.84 362.41 341.489C362.41 340.139 361.316 339.044 359.965 339.044C358.614 339.044 357.52 340.139 357.52 341.489C357.52 342.84 358.614 343.935 359.965 343.935Z" fill="#FDE0DD"/>
<path opacity="0.4" d="M356.053 331.707C357.133 331.707 358.009 330.832 358.009 329.751C358.009 328.671 357.133 327.795 356.053 327.795C354.972 327.795 354.096 328.671 354.096 329.751C354.096 330.832 354.972 331.707 356.053 331.707Z" fill="#FDE0DD"/>
<path opacity="0.4" d="M156.507 55.8646V81.2969H195.633V186.939" stroke="#F5A89F" stroke-width="1.46725" stroke-linecap="round" stroke-linejoin="round"/>
<path opacity="0.5" d="M195.633 123.847C197.524 123.847 199.057 122.314 199.057 120.424C199.057 118.533 197.524 117 195.633 117C193.743 117 192.21 118.533 192.21 120.424C192.21 122.314 193.743 123.847 195.633 123.847Z" fill="#F5A89F"/>
<path opacity="0.4" d="M281.712 392.354V366.921H238.672V273.017" stroke="#F5A89F" stroke-width="1.46725" stroke-linecap="round" stroke-linejoin="round"/>
<path opacity="0.5" d="M238.673 335.131C240.563 335.131 242.096 333.598 242.096 331.707C242.096 329.817 240.563 328.284 238.673 328.284C236.782 328.284 235.249 329.817 235.249 331.707C235.249 333.598 236.782 335.131 238.673 335.131Z" fill="#F5A89F"/>
<path opacity="0.5" d="M50.8647 161.507H76.2971V149.769" stroke="#F5A89F" stroke-width="1.46725" stroke-linecap="round" stroke-linejoin="round"/>
<path opacity="0.4" d="M50.8647 286.712H25.4324" stroke="#F5A89F" stroke-width="1.46725" stroke-linecap="round"/>
<path opacity="0.4" d="M31.3013 290.135C33.1921 290.135 34.7248 288.603 34.7248 286.712C34.7248 284.821 33.1921 283.288 31.3013 283.288C29.4105 283.288 27.8777 284.821 27.8777 286.712C27.8777 288.603 29.4105 290.135 31.3013 290.135Z" fill="#F5A89F"/>
<path opacity="0.4" d="M387.354 161.507H422.568" stroke="#F5A89F" stroke-width="1.46725" stroke-linecap="round"/>
<path opacity="0.4" d="M416.699 164.93C418.59 164.93 420.122 163.397 420.122 161.507C420.122 159.616 418.59 158.083 416.699 158.083C414.808 158.083 413.275 159.616 413.275 161.507C413.275 163.397 414.808 164.93 416.699 164.93Z" fill="#F5A89F"/>
<path opacity="0.4" d="M394 287L423 287" stroke="#F5A89F" stroke-width="1.46725" stroke-linecap="round"/>
<path opacity="0.4" d="M416.699 290.135C418.59 290.135 420.122 288.603 420.122 286.712C420.122 284.821 418.59 283.288 416.699 283.288C414.808 283.288 413.275 284.821 413.275 286.712C413.275 288.603 414.808 290.135 416.699 290.135Z" fill="#F5A89F"/>
</svg>
