<svg width="448" height="458" viewBox="0 0 448 458" fill="none" xmlns="http://www.w3.org/2000/svg">
<rect width="448" height="458" fill="#2C7A56"/>
<path d="M438.218 5H0V443.218H438.218V5Z" fill="#2C7A56"/>
<path opacity="0.6" d="M359.965 55.8646H78.2534C63.1271 55.8646 50.8647 68.1269 50.8647 83.2533V364.965C50.8647 380.091 63.1271 392.354 78.2534 392.354H359.965C375.092 392.354 387.354 380.091 387.354 364.965V83.2533C387.354 68.1269 375.092 55.8646 359.965 55.8646Z" stroke="#4DB885" stroke-width="1.46725"/>
<path d="M156.507 60.7554C159.208 60.7554 161.397 58.5657 161.397 55.8646C161.397 53.1635 159.208 50.9738 156.507 50.9738C153.805 50.9738 151.616 53.1635 151.616 55.8646C151.616 58.5657 153.805 60.7554 156.507 60.7554Z" fill="#A8DFC4"/>
<path d="M281.712 60.7554C284.413 60.7554 286.603 58.5657 286.603 55.8646C286.603 53.1635 284.413 50.9738 281.712 50.9738C279.011 50.9738 276.821 53.1635 276.821 55.8646C276.821 58.5657 279.011 60.7554 281.712 60.7554Z" fill="#A8DFC4"/>
<path d="M156.507 397.245C159.208 397.245 161.397 395.055 161.397 392.354C161.397 389.653 159.208 387.463 156.507 387.463C153.805 387.463 151.616 389.653 151.616 392.354C151.616 395.055 153.805 397.245 156.507 397.245Z" fill="#A8DFC4"/>
<path d="M281.712 397.245C284.413 397.245 286.603 395.055 286.603 392.354C286.603 389.653 284.413 387.463 281.712 387.463C279.011 387.463 276.821 389.653 276.821 392.354C276.821 395.055 279.011 397.245 281.712 397.245Z" fill="#A8DFC4"/>
<path d="M50.8647 166.397C53.5658 166.397 55.7555 164.208 55.7555 161.507C55.7555 158.805 53.5658 156.616 50.8647 156.616C48.1636 156.616 45.9739 158.805 45.9739 161.507C45.9739 164.208 48.1636 166.397 50.8647 166.397Z" fill="#A8DFC4"/>
<path d="M50.8647 291.603C53.5658 291.603 55.7555 289.413 55.7555 286.712C55.7555 284.011 53.5658 281.821 50.8647 281.821C48.1636 281.821 45.9739 284.011 45.9739 286.712C45.9739 289.413 48.1636 291.603 50.8647 291.603Z" fill="#A8DFC4"/>
<path d="M387.354 166.397C390.055 166.397 392.245 164.208 392.245 161.507C392.245 158.805 390.055 156.616 387.354 156.616C384.653 156.616 382.463 158.805 382.463 161.507C382.463 164.208 384.653 166.397 387.354 166.397Z" fill="#A8DFC4"/>
<path d="M387.354 291.603C390.055 291.603 392.245 289.413 392.245 286.712C392.245 284.011 390.055 281.821 387.354 281.821C384.653 281.821 382.463 284.011 382.463 286.712C382.463 289.413 384.653 291.603 387.354 291.603Z" fill="#A8DFC4"/>
<path d="M151.616 149.769H67.4934C64.7922 149.769 62.6025 151.958 62.6025 154.659V254.432C62.6025 257.133 64.7922 259.323 67.4934 259.323H151.616C154.317 259.323 156.506 257.133 156.506 254.432V154.659C156.506 151.958 154.317 149.769 151.616 149.769Z" fill="#1A4D36"/>
<path d="M151.616 149.769H67.4934C64.7922 149.769 62.6025 151.958 62.6025 154.659V162.485C62.6025 165.186 64.7922 167.376 67.4934 167.376H151.616C154.317 167.376 156.506 165.186 156.506 162.485V154.659C156.506 151.958 154.317 149.769 151.616 149.769Z" fill="#A8DFC4"/>
<path d="M74.3406 161.996C76.2314 161.996 77.7642 160.463 77.7642 158.572C77.7642 156.681 76.2314 155.148 74.3406 155.148C72.4498 155.148 70.917 156.681 70.917 158.572C70.917 160.463 72.4498 161.996 74.3406 161.996Z" fill="#2C7A56"/>
<path d="M84.1223 161.996C86.0131 161.996 87.5459 160.463 87.5459 158.572C87.5459 156.681 86.0131 155.148 84.1223 155.148C82.2315 155.148 80.6987 156.681 80.6987 158.572C80.6987 160.463 82.2315 161.996 84.1223 161.996Z" fill="#2C7A56"/>
<path d="M93.904 161.996C95.7948 161.996 97.3276 160.463 97.3276 158.572C97.3276 156.681 95.7948 155.148 93.904 155.148C92.0133 155.148 90.4805 156.681 90.4805 158.572C90.4805 160.463 92.0133 161.996 93.904 161.996Z" fill="#2C7A56"/>
<path opacity="0.5" d="M96.8385 175.201H71.4061C70.8659 175.201 70.428 175.639 70.428 176.179V179.114C70.428 179.654 70.8659 180.092 71.4061 180.092H96.8385C97.3787 180.092 97.8166 179.654 97.8166 179.114V176.179C97.8166 175.639 97.3787 175.201 96.8385 175.201Z" fill="#A8DFC4"/>
<path opacity="0.7" d="M146.725 183.026H72.3843C71.3039 183.026 70.428 183.902 70.428 184.983V189.873C70.428 190.954 71.3039 191.83 72.3843 191.83H146.725C147.805 191.83 148.681 190.954 148.681 189.873V184.983C148.681 183.902 147.805 183.026 146.725 183.026Z" fill="#2C7A56"/>
<path opacity="0.5" d="M104.664 198.677H71.4061C70.8659 198.677 70.428 199.115 70.428 199.655V202.59C70.428 203.13 70.8659 203.568 71.4061 203.568H104.664C105.204 203.568 105.642 203.13 105.642 202.59V199.655C105.642 199.115 105.204 198.677 104.664 198.677Z" fill="#A8DFC4"/>
<path opacity="0.7" d="M146.725 206.502H72.3843C71.3039 206.502 70.428 207.378 70.428 208.459V213.349C70.428 214.43 71.3039 215.306 72.3843 215.306H146.725C147.805 215.306 148.681 214.43 148.681 213.349V208.459C148.681 207.378 147.805 206.502 146.725 206.502Z" fill="#2C7A56"/>
<path opacity="0.5" d="M90.9695 222.153H71.4061C70.8659 222.153 70.428 222.591 70.428 223.131V226.065C70.428 226.606 70.8659 227.044 71.4061 227.044H90.9695C91.5097 227.044 91.9476 226.606 91.9476 226.065V223.131C91.9476 222.591 91.5097 222.153 90.9695 222.153Z" fill="#A8DFC4"/>
<path opacity="0.8" d="M77.2751 229.978H71.4061C70.8659 229.978 70.428 230.416 70.428 230.956V236.825C70.428 237.366 70.8659 237.803 71.4061 237.803H77.2751C77.8154 237.803 78.2533 237.366 78.2533 236.825V230.956C78.2533 230.416 77.8154 229.978 77.2751 229.978Z" fill="#2C7A56"/>
<path d="M71.406 233.891L74.3405 236.825" stroke="#A8DFC4" stroke-width="1.1738" stroke-linecap="round"/>
<path d="M74.3406 236.825L78.2532 231.934" stroke="#A8DFC4" stroke-width="1.1738" stroke-linecap="round"/>
<path opacity="0.8" d="M89.0132 229.978H83.1442C82.604 229.978 82.166 230.416 82.166 230.956V236.825C82.166 237.366 82.604 237.803 83.1442 237.803H89.0132C89.5534 237.803 89.9913 237.366 89.9913 236.825V230.956C89.9913 230.416 89.5534 229.978 89.0132 229.978Z" fill="#2C7A56"/>
<path opacity="0.5" d="M100.751 229.978H94.882C94.3417 229.978 93.9038 230.416 93.9038 230.956V236.825C93.9038 237.366 94.3417 237.803 94.882 237.803H100.751C101.291 237.803 101.729 237.366 101.729 236.825V230.956C101.729 230.416 101.291 229.978 100.751 229.978Z" fill="#4DB885"/>
<path opacity="0.8" d="M107.598 245.629H72.3843C71.3039 245.629 70.428 246.505 70.428 247.585V251.498C70.428 252.578 71.3039 253.454 72.3843 253.454H107.598C108.679 253.454 109.555 252.578 109.555 251.498V247.585C109.555 246.505 108.679 245.629 107.598 245.629Z" fill="#4DB885"/>
<path d="M136.943 153.681L144.769 145.856" stroke="#A8DFC4" stroke-width="1.46725" stroke-linecap="round"/>
<path opacity="0.7" d="M144.769 145.856L148.681 149.769L139.878 154.659L144.769 145.856Z" fill="#A8DFC4"/>
<path d="M89.9912 327.795C96.4739 327.795 101.729 322.54 101.729 316.057C101.729 309.574 96.4739 304.319 89.9912 304.319C83.5085 304.319 78.2532 309.574 78.2532 316.057C78.2532 322.54 83.5085 327.795 89.9912 327.795Z" stroke="#A8DFC4" stroke-width="1.46725"/>
<path d="M68.4717 345.402C74.9928 336.272 82.166 331.707 89.9913 331.707C97.8167 331.707 104.99 336.272 111.511 345.402" stroke="#A8DFC4" stroke-width="1.46725" stroke-linecap="round"/>
<path opacity="0.6" d="M117.38 336.598C122.242 336.598 126.183 332.657 126.183 327.795C126.183 322.933 122.242 318.991 117.38 318.991C112.518 318.991 108.576 322.933 108.576 327.795C108.576 332.657 112.518 336.598 117.38 336.598Z" stroke="#A8DFC4" stroke-width="1.1738"/>
<path opacity="0.6" d="M101.729 349.314C106.946 342.793 112.163 339.533 117.38 339.533C122.597 339.533 127.814 342.793 133.031 349.314" stroke="#A8DFC4" stroke-width="1.1738" stroke-linecap="round"/>
<path d="M109.555 259.323V288.668H89.9912V304.319" stroke="#4DB885" stroke-width="1.46725" stroke-linecap="round" stroke-linejoin="round"/>
<path d="M109.555 277.419C111.445 277.419 112.978 275.886 112.978 273.996C112.978 272.105 111.445 270.572 109.555 270.572C107.664 270.572 106.131 272.105 106.131 273.996C106.131 275.886 107.664 277.419 109.555 277.419Z" fill="#4DB885"/>
<path d="M111.511 319.969H156.507V237.803H195.633" stroke="#4DB885" stroke-width="1.46725" stroke-linecap="round" stroke-linejoin="round"/>
<path d="M156.507 323.393C158.397 323.393 159.93 321.86 159.93 319.969C159.93 318.079 158.397 316.546 156.507 316.546C154.616 316.546 153.083 318.079 153.083 319.969C153.083 321.86 154.616 323.393 156.507 323.393Z" fill="#4DB885"/>
<path d="M156.506 281.332C157.857 281.332 158.952 280.237 158.952 278.886C158.952 277.536 157.857 276.441 156.506 276.441C155.156 276.441 154.061 277.536 154.061 278.886C154.061 280.237 155.156 281.332 156.506 281.332Z" fill="#A8DFC4"/>
<path d="M156.506 261.769C157.857 261.769 158.952 260.674 158.952 259.323C158.952 257.973 157.857 256.878 156.506 256.878C155.156 256.878 154.061 257.973 154.061 259.323C154.061 260.674 155.156 261.769 156.506 261.769Z" fill="#A8DFC4"/>
<path d="M156.507 204.546H195.633" stroke="#4DB885" stroke-width="1.46725" stroke-linecap="round" stroke-linejoin="round"/>
<path d="M166.288 206.991C167.639 206.991 168.734 205.896 168.734 204.546C168.734 203.195 167.639 202.1 166.288 202.1C164.938 202.1 163.843 203.195 163.843 204.546C163.843 205.896 164.938 206.991 166.288 206.991Z" fill="#A8DFC4"/>
<path d="M178.026 206.991C179.377 206.991 180.472 205.896 180.472 204.546C180.472 203.195 179.377 202.1 178.026 202.1C176.676 202.1 175.581 203.195 175.581 204.546C175.581 205.896 176.676 206.991 178.026 206.991Z" fill="#A8DFC4"/>
<path d="M275.843 186.939H201.502C198.261 186.939 195.633 189.566 195.633 192.808V267.148C195.633 270.39 198.261 273.017 201.502 273.017H275.843C279.084 273.017 281.712 270.39 281.712 267.148V192.808C281.712 189.566 279.084 186.939 275.843 186.939Z" fill="#1A4D36"/>
<path opacity="0.5" d="M273.887 190.852H203.459C201.298 190.852 199.546 192.603 199.546 194.764V265.192C199.546 267.353 201.298 269.105 203.459 269.105H273.887C276.047 269.105 277.799 267.353 277.799 265.192V194.764C277.799 192.603 276.047 190.852 273.887 190.852Z" stroke="#4DB885" stroke-width="0.978166"/>
<path d="M238.673 236.825C242.454 236.825 245.52 233.76 245.52 229.978C245.52 226.197 242.454 223.131 238.673 223.131C234.891 223.131 231.825 226.197 231.825 229.978C231.825 233.76 234.891 236.825 238.673 236.825Z" fill="#A8DFC4"/>
<path opacity="0.8" d="M238.672 223.131V208.458" stroke="#4DB885" stroke-width="1.1738"/>
<path opacity="0.8" d="M238.672 236.825V251.498" stroke="#4DB885" stroke-width="1.1738"/>
<path opacity="0.8" d="M231.825 229.978H217.153" stroke="#4DB885" stroke-width="1.1738"/>
<path opacity="0.8" d="M245.52 229.978H260.192" stroke="#4DB885" stroke-width="1.1738"/>
<path opacity="0.5" d="M233.782 225.087L223.022 214.328" stroke="#4DB885" stroke-width="0.978166"/>
<path opacity="0.5" d="M243.563 225.087L254.323 214.328" stroke="#4DB885" stroke-width="0.978166"/>
<path opacity="0.5" d="M233.782 234.869L223.022 245.629" stroke="#4DB885" stroke-width="0.978166"/>
<path opacity="0.5" d="M243.563 234.869L254.323 245.629" stroke="#4DB885" stroke-width="0.978166"/>
<path d="M238.673 211.882C240.563 211.882 242.096 210.349 242.096 208.458C242.096 206.568 240.563 205.035 238.673 205.035C236.782 205.035 235.249 206.568 235.249 208.458C235.249 210.349 236.782 211.882 238.673 211.882Z" fill="#4DB885"/>
<path d="M238.673 254.921C240.563 254.921 242.096 253.389 242.096 251.498C242.096 249.607 240.563 248.074 238.673 248.074C236.782 248.074 235.249 249.607 235.249 251.498C235.249 253.389 236.782 254.921 238.673 254.921Z" fill="#4DB885"/>
<path d="M217.153 233.402C219.044 233.402 220.576 231.869 220.576 229.978C220.576 228.087 219.044 226.555 217.153 226.555C215.262 226.555 213.729 228.087 213.729 229.978C213.729 231.869 215.262 233.402 217.153 233.402Z" fill="#4DB885"/>
<path d="M260.192 233.402C262.083 233.402 263.616 231.869 263.616 229.978C263.616 228.087 262.083 226.555 260.192 226.555C258.301 226.555 256.769 228.087 256.769 229.978C256.769 231.869 258.301 233.402 260.192 233.402Z" fill="#4DB885"/>
<path opacity="0.6" d="M223.022 216.773C224.372 216.773 225.467 215.678 225.467 214.327C225.467 212.977 224.372 211.882 223.022 211.882C221.671 211.882 220.576 212.977 220.576 214.327C220.576 215.678 221.671 216.773 223.022 216.773Z" fill="#4DB885"/>
<path opacity="0.6" d="M254.323 216.773C255.674 216.773 256.769 215.678 256.769 214.327C256.769 212.977 255.674 211.882 254.323 211.882C252.973 211.882 251.878 212.977 251.878 214.327C251.878 215.678 252.973 216.773 254.323 216.773Z" fill="#4DB885"/>
<path opacity="0.6" d="M223.022 248.074C224.372 248.074 225.467 246.979 225.467 245.629C225.467 244.278 224.372 243.183 223.022 243.183C221.671 243.183 220.576 244.278 220.576 245.629C220.576 246.979 221.671 248.074 223.022 248.074Z" fill="#4DB885"/>
<path opacity="0.6" d="M254.323 248.074C255.674 248.074 256.769 246.979 256.769 245.629C256.769 244.278 255.674 243.183 254.323 243.183C252.973 243.183 251.878 244.278 251.878 245.629C251.878 246.979 252.973 248.074 254.323 248.074Z" fill="#4DB885"/>
<path d="M281.712 210.415H313.013V159.55H340.402" stroke="#4DB885" stroke-width="1.46725" stroke-linecap="round" stroke-linejoin="round"/>
<path d="M313.013 213.838C314.904 213.838 316.437 212.306 316.437 210.415C316.437 208.524 314.904 206.991 313.013 206.991C311.122 206.991 309.59 208.524 309.59 210.415C309.59 212.306 311.122 213.838 313.013 213.838Z" fill="#4DB885"/>
<path d="M303.232 212.86C304.582 212.86 305.677 211.765 305.677 210.415C305.677 209.064 304.582 207.969 303.232 207.969C301.881 207.969 300.786 209.064 300.786 210.415C300.786 211.765 301.881 212.86 303.232 212.86Z" fill="#A8DFC4"/>
<path d="M293.45 212.86C294.8 212.86 295.895 211.765 295.895 210.415C295.895 209.064 294.8 207.969 293.45 207.969C292.099 207.969 291.004 209.064 291.004 210.415C291.004 211.765 292.099 212.86 293.45 212.86Z" fill="#A8DFC4"/>
<path d="M281.712 249.542H322.795V304.319H340.402" stroke="#4DB885" stroke-width="1.46725" stroke-linecap="round" stroke-linejoin="round"/>
<path d="M322.795 252.965C324.685 252.965 326.218 251.432 326.218 249.542C326.218 247.651 324.685 246.118 322.795 246.118C320.904 246.118 319.371 247.651 319.371 249.542C319.371 251.432 320.904 252.965 322.795 252.965Z" fill="#4DB885"/>
<path d="M305.188 251.987C306.538 251.987 307.633 250.892 307.633 249.541C307.633 248.191 306.538 247.096 305.188 247.096C303.837 247.096 302.742 248.191 302.742 249.541C302.742 250.892 303.837 251.987 305.188 251.987Z" fill="#A8DFC4"/>
<path d="M293.45 251.987C294.8 251.987 295.895 250.892 295.895 249.541C295.895 248.191 294.8 247.096 293.45 247.096C292.099 247.096 291.004 248.191 291.004 249.541C291.004 250.892 292.099 251.987 293.45 251.987Z" fill="#A8DFC4"/>
<path d="M417.677 132.162H345.293C342.592 132.162 340.402 134.351 340.402 137.052V182.048C340.402 184.749 342.592 186.939 345.293 186.939H417.677C420.378 186.939 422.568 184.749 422.568 182.048V137.052C422.568 134.351 420.378 132.162 417.677 132.162Z" fill="#1A4D36"/>
<path opacity="0.5" d="M360.943 161.507H353.118C352.578 161.507 352.14 161.945 352.14 162.485V178.135C352.14 178.676 352.578 179.114 353.118 179.114H360.943C361.483 179.114 361.921 178.676 361.921 178.135V162.485C361.921 161.945 361.483 161.507 360.943 161.507Z" fill="#A8DFC4"/>
<path opacity="0.75" d="M374.637 153.681H366.812C366.272 153.681 365.834 154.119 365.834 154.659V178.135C365.834 178.676 366.272 179.114 366.812 179.114H374.637C375.178 179.114 375.616 178.676 375.616 178.135V154.659C375.616 154.119 375.178 153.681 374.637 153.681Z" fill="#A8DFC4"/>
<path d="M388.332 146.834H380.506C379.966 146.834 379.528 147.272 379.528 147.812V178.135C379.528 178.676 379.966 179.114 380.506 179.114H388.332C388.872 179.114 389.31 178.676 389.31 178.135V147.812C389.31 147.272 388.872 146.834 388.332 146.834Z" fill="#A8DFC4"/>
<path opacity="0.75" d="M402.026 155.638H394.201C393.661 155.638 393.223 156.076 393.223 156.616V178.135C393.223 178.676 393.661 179.114 394.201 179.114H402.026C402.566 179.114 403.004 178.676 403.004 178.135V156.616C403.004 156.076 402.566 155.638 402.026 155.638Z" fill="#A8DFC4"/>
<path opacity="0.5" d="M415.72 159.55H407.895C407.355 159.55 406.917 159.988 406.917 160.528V178.135C406.917 178.676 407.355 179.113 407.895 179.113H415.72C416.261 179.113 416.699 178.676 416.699 178.135V160.528C416.699 159.988 416.261 159.55 415.72 159.55Z" fill="#A8DFC4"/>
<path opacity="0.6" d="M350.183 180.092H418.655" stroke="#4DB885" stroke-width="0.978166"/>
<path d="M417.677 276.93H345.293C342.592 276.93 340.402 279.12 340.402 281.821V326.817C340.402 329.518 342.592 331.707 345.293 331.707H417.677C420.378 331.707 422.568 329.518 422.568 326.817V281.821C422.568 279.12 420.378 276.93 417.677 276.93Z" fill="#1A4D36"/>
<path opacity="0.35" d="M350.183 296.493H414.742" stroke="#4DB885" stroke-width="0.684716"/>
<path opacity="0.35" d="M350.183 308.231H414.742" stroke="#4DB885" stroke-width="0.684716"/>
<path opacity="0.35" d="M350.183 319.969H414.742" stroke="#4DB885" stroke-width="0.684716"/>
<path d="M352.14 322.904L365.834 316.057L377.572 306.275L389.31 298.45L403.004 292.581L414.742 286.712" stroke="#A8DFC4" stroke-width="1.95633" stroke-linecap="round" stroke-linejoin="round"/>
<path d="M352.14 325.349C353.49 325.349 354.585 324.254 354.585 322.904C354.585 321.553 353.49 320.458 352.14 320.458C350.789 320.458 349.694 321.553 349.694 322.904C349.694 324.254 350.789 325.349 352.14 325.349Z" fill="#A8DFC4"/>
<path d="M365.834 318.502C367.185 318.502 368.28 317.407 368.28 316.057C368.28 314.706 367.185 313.611 365.834 313.611C364.484 313.611 363.389 314.706 363.389 316.057C363.389 317.407 364.484 318.502 365.834 318.502Z" fill="#A8DFC4"/>
<path d="M377.572 308.721C378.923 308.721 380.018 307.626 380.018 306.275C380.018 304.925 378.923 303.83 377.572 303.83C376.222 303.83 375.127 304.925 375.127 306.275C375.127 307.626 376.222 308.721 377.572 308.721Z" fill="#A8DFC4"/>
<path d="M389.31 300.895C390.661 300.895 391.756 299.8 391.756 298.45C391.756 297.099 390.661 296.004 389.31 296.004C387.96 296.004 386.865 297.099 386.865 298.45C386.865 299.8 387.96 300.895 389.31 300.895Z" fill="#A8DFC4"/>
<path d="M403.004 295.026C404.355 295.026 405.45 293.931 405.45 292.581C405.45 291.23 404.355 290.135 403.004 290.135C401.654 290.135 400.559 291.23 400.559 292.581C400.559 293.931 401.654 295.026 403.004 295.026Z" fill="#A8DFC4"/>
<path d="M414.742 289.157C416.093 289.157 417.188 288.062 417.188 286.712C417.188 285.361 416.093 284.266 414.742 284.266C413.392 284.266 412.297 285.361 412.297 286.712C412.297 288.062 413.392 289.157 414.742 289.157Z" fill="#A8DFC4"/>
<path opacity="0.4" d="M156.507 55.8646V83.2533H195.633V186.939" stroke="#4DB885" stroke-width="1.46725" stroke-linecap="round" stroke-linejoin="round"/>
<path opacity="0.5" d="M195.633 125.803C197.524 125.803 199.057 124.271 199.057 122.38C199.057 120.489 197.524 118.956 195.633 118.956C193.743 118.956 192.21 120.489 192.21 122.38C192.21 124.271 193.743 125.803 195.633 125.803Z" fill="#4DB885"/>
<path opacity="0.4" d="M281.712 392.354V364.965H238.672V273.017" stroke="#4DB885" stroke-width="1.46725" stroke-linecap="round" stroke-linejoin="round"/>
<path opacity="0.5" d="M238.673 331.218C240.563 331.218 242.096 329.686 242.096 327.795C242.096 325.904 240.563 324.371 238.673 324.371C236.782 324.371 235.249 325.904 235.249 327.795C235.249 329.686 236.782 331.218 238.673 331.218Z" fill="#4DB885"/>
<path opacity="0.5" d="M50.8647 161.507H78.2534V149.769" stroke="#4DB885" stroke-width="1.46725" stroke-linecap="round" stroke-linejoin="round"/>
<path opacity="0.4" d="M387.354 161.507H422.568" stroke="#4DB885" stroke-width="1.46725" stroke-linecap="round"/>
<path opacity="0.4" d="M416.699 164.93C418.59 164.93 420.122 163.397 420.122 161.507C420.122 159.616 418.59 158.083 416.699 158.083C414.808 158.083 413.275 159.616 413.275 161.507C413.275 163.397 414.808 164.93 416.699 164.93Z" fill="#4DB885"/>
<path opacity="0.4" d="M387.354 286.712H422.568" stroke="#4DB885" stroke-width="1.46725" stroke-linecap="round"/>
<path opacity="0.4" d="M416.699 290.135C418.59 290.135 420.122 288.603 420.122 286.712C420.122 284.821 418.59 283.288 416.699 283.288C414.808 283.288 413.275 284.821 413.275 286.712C413.275 288.603 414.808 290.135 416.699 290.135Z" fill="#4DB885"/>
<path opacity="0.4" d="M50.8647 286.712H25.4324" stroke="#4DB885" stroke-width="1.46725" stroke-linecap="round"/>
<path opacity="0.4" d="M31.3013 290.135C33.1921 290.135 34.7248 288.603 34.7248 286.712C34.7248 284.821 33.1921 283.288 31.3013 283.288C29.4105 283.288 27.8777 284.821 27.8777 286.712C27.8777 288.603 29.4105 290.135 31.3013 290.135Z" fill="#4DB885"/>
</svg>
