<?xml version="1.0" encoding="utf-8"?>
<!-- Generator: Adobe Illustrator 25.4.1, SVG Export Plug-In . SVG Version: 6.00 Build 0)  -->
<svg version="1.1" id="svg842" xmlns="http://www.w3.org/2000/svg" xmlns:xlink="http://www.w3.org/1999/xlink" x="0px" y="0px"
	 viewBox="0 0 1129.9 378.4" style="enable-background:new 0 0 1129.9 378.4;" xml:space="preserve">
<style type="text/css">
	.st0{fill:#171D27;}
</style>
<g id="layer1">
	<path id="Shape" class="st0" d="M55.2,200.7c-10.9,0-20.6-2.4-28.9-7.2c-8.3-4.9-14.8-11.7-19.4-20.3C2.3,164.4,0,154.3,0,142.9
		c0-13.7,3.4-25.7,10.2-36.1C17.1,96.5,26.9,88.5,39.5,83c12.8-5.5,27.7-8.3,44.8-8.3c7.9,0,14.3,0.5,19.2,1.6v-4.9
		c0-11.7-2.2-20.4-6.5-26.1c-4.3-5.9-10.9-8.8-19.6-8.8c-14.2,0-23.3,7.5-27.3,22.4c-1.2,4.3-3.8,6.2-7.6,5.5l-31.4-5.5
		c-2.3-0.5-3.9-1.5-4.9-3c-0.8-1.5-0.8-3.6-0.2-6.2C10,34,18.5,21.8,31.4,13.2C44.5,4.4,60.9,0,80.7,0c23.4,0,41.2,6.3,53.4,19
		c12.3,12.6,18.5,31.1,18.5,55.3v116.3c0,1.7-0.6,3.2-1.8,4.4c-1.1,1.1-2.5,1.6-4.2,1.6h-30.1c-3.7,0-6-2-6.9-6l-4.6-21.7h-1.8
		c-4.2,10.2-10.4,18-18.7,23.6C76.2,197.9,66.5,200.7,55.2,200.7L55.2,200.7z M50.4,137.3c0,8.2,2.1,14.7,6.2,19.6
		c4.3,4.8,10.1,7.2,17.3,7.2c9.6,0,16.9-4.2,22-12.7c5.1-8.6,7.6-21,7.6-37v-12.3c-4.3-0.8-8.4-1.2-12.3-1.2
		c-12.6,0-22.7,3.3-30.1,9.9C54,117.4,50.4,126.2,50.4,137.3L50.4,137.3z M181.2,10.2c0-1.7,0.5-3.1,1.6-4.2
		c1.2-1.2,2.7-1.8,4.4-1.8h30.5c1.7,0,3.1,0.5,4.2,1.6c1.2,1.1,2,2.5,2.3,4.4l4.6,22.7h1.8c4.2-10.6,10.1-18.7,17.8-24.3
		c7.9-5.7,17.1-8.6,27.7-8.6c11.4,0,21.2,3,29.4,9c8.3,6,14.7,14.6,19.2,25.7h1.8C333.4,23,341,14.3,349.5,8.6
		C358,2.8,367.5,0,378,0c11.4,0,21.3,3.1,29.6,9.2c8.5,6.2,14.9,14.9,19.4,26.4c4.5,11.4,6.7,24.9,6.7,40.5v114.4
		c0,1.7-0.6,3.2-1.9,4.4c-1.1,1.1-2.5,1.6-4.2,1.6h-37c-1.7,0-3.2-0.5-4.4-1.6c-1.1-1.2-1.6-2.7-1.6-4.4V79.7
		c0-11.3-2.2-19.9-6.5-25.9c-4.3-6-10.6-9-18.7-9c-8.9,0-15.8,3.5-20.6,10.6c-4.6,7.1-6.9,17.3-6.9,30.7v104.3
		c0,1.7-0.6,3.2-1.9,4.4c-1.1,1.1-2.5,1.6-4.2,1.6h-37c-1.7,0-3.2-0.5-4.4-1.6c-1.1-1.2-1.6-2.7-1.6-4.4V79.7
		c0-11.3-2.2-19.9-6.5-25.9c-4.3-6-10.6-9-18.7-9c-8.9,0-15.8,3.5-20.6,10.6c-4.6,7.1-6.9,17.3-6.9,30.7v104.3
		c0,1.7-0.6,3.2-1.8,4.4c-1.1,1.1-2.5,1.6-4.2,1.6h-37c-1.7,0-3.2-0.5-4.4-1.6c-1.1-1.2-1.6-2.7-1.6-4.4L181.2,10.2z M457.7,142.9
		c0-13.7,3.4-25.7,10.2-36.1c6.9-10.3,16.7-18.3,29.4-23.8c12.8-5.5,27.7-8.3,44.8-8.3c7.9,0,14.3,0.5,19.2,1.6v-4.9
		c0-11.7-2.2-20.4-6.5-26.1c-4.3-5.9-10.9-8.8-19.6-8.8c-14.2,0-23.3,7.5-27.3,22.4c-1.2,4.3-3.8,6.2-7.6,5.5l-31.4-5.5
		c-2.3-0.5-3.9-1.5-4.9-3c-0.8-1.5-0.8-3.6-0.2-6.2c4-15.7,12.5-27.9,25.4-36.5C502.2,4.4,518.7,0,538.4,0c23.4,0,41.2,6.3,53.4,19
		c12.3,12.6,18.5,31.1,18.5,55.3v116.3c0,1.7-0.6,3.2-1.8,4.4c-1.1,1.1-2.5,1.6-4.2,1.6h-30.1c-3.7,0-6-2-6.9-6l-4.6-21.7h-1.8
		c-4.2,10.2-10.4,18-18.7,23.6c-8.2,5.5-17.9,8.3-29.1,8.3c-11.3,0-20.6-2.4-28.9-7.2c-8.3-4.9-14.8-11.7-19.4-20.3
		C460,164.4,457.7,154.3,457.7,142.9L457.7,142.9z M508.1,137.3c0,8.2,2.1,14.7,6.2,19.6c4.3,4.8,10.1,7.2,17.3,7.2
		c9.6,0,16.9-4.2,22-12.7c5.1-8.6,7.6-21,7.6-37v-12.3c-4.3-0.8-8.4-1.2-12.3-1.2c-12.6,0-22.7,3.3-30.1,9.9
		C511.7,117.4,508.1,126.2,508.1,137.3L508.1,137.3z M635.2,162.5c0-3.4,0.9-6.3,2.8-8.8L717.1,43h-74c-1.7,0-3.2-0.5-4.4-1.6
		c-1.1-1.2-1.6-2.7-1.6-4.4V10.2c0-1.7,0.5-3.1,1.6-4.2c1.2-1.2,2.7-1.8,4.4-1.8h121.6c1.7,0,3.1,0.6,4.2,1.8
		c1.2,1.1,1.8,2.5,1.8,4.2v28c0,3.4-0.9,6.3-2.8,8.8l-71.7,98.5c4.3-0.8,8.7-1.2,13.2-1.2c11.1,0,21.3,1,30.5,3
		c9.4,1.8,19.1,4.9,29.1,9.2c3.5,1.5,5.3,4.2,5.3,7.9v26.6c0,2.5-0.8,4.2-2.3,5.1c-1.5,0.8-3.5,0.7-5.8-0.2
		c-11.6-4.3-21.8-7.3-30.7-9c-8.8-1.8-18.4-2.8-28.9-2.8c-10.5,0-20.5,0.9-30.5,2.8c-9.9,1.8-20.8,4.9-32.8,9
		c-2.3,0.8-4.2,0.8-5.8,0c-1.5-0.9-2.3-2.5-2.3-4.9L635.2,162.5z M784.6,100.3c0-18.8,3.6-35.8,10.9-51.1
		c7.2-15.4,17.2-27.4,29.8-36.1C838,4.4,852.2,0,867.8,0c15.6,0,29.9,4.4,42.5,13.2c12.8,8.6,22.8,20.7,30.1,36.1
		c7.4,15.3,11.1,32.3,11.1,51.1c0,18.8-3.7,35.9-11.1,51.3c-7.2,15.3-17.3,27.3-30.1,36.1c-12.6,8.6-26.8,12.9-42.5,12.9
		c-15.7,0-29.7-4.3-42.5-12.9c-12.6-8.8-22.6-20.8-29.8-36.1C788.2,136.2,784.6,119.1,784.6,100.3L784.6,100.3z M835.4,100.3
		c0,19.6,2.8,34.7,8.3,45.3c5.6,10.5,13.6,15.7,24,15.7s18.6-5.2,24.3-15.7c5.7-10.6,8.6-25.7,8.6-45.3c0-19.6-2.8-34.6-8.6-45.1
		c-5.7-10.6-13.8-16-24.3-16s-18.5,5.3-24,16C838.2,65.7,835.4,80.8,835.4,100.3z M976.4,10.2c0-1.7,0.5-3.1,1.6-4.2
		c1.2-1.2,2.7-1.8,4.4-1.8h30.5c1.7,0,3.1,0.5,4.2,1.6c1.2,1.1,2,2.5,2.3,4.4l4.6,22.7h1.8c4.2-10.5,10.2-18.6,18.3-24.3
		c8.2-5.7,17.7-8.6,28.7-8.6c11.7,0,21.8,3.1,30.3,9.2c8.6,6.2,15.3,14.9,19.9,26.4c4.6,11.4,6.9,24.9,6.9,40.5v114.4
		c0,1.7-0.6,3.2-1.8,4.4c-1.1,1.1-2.5,1.6-4.2,1.6h-37c-1.7,0-3.2-0.5-4.4-1.6c-1.1-1.2-1.6-2.7-1.6-4.4V79.7
		c0-11.3-2.3-19.9-6.9-25.9c-4.6-6-11.2-9-19.6-9c-9.4,0-16.6,3.5-21.5,10.6c-4.9,7.1-7.4,17.3-7.4,30.7v104.3
		c0,1.7-0.6,3.2-1.8,4.4c-1.1,1.1-2.5,1.6-4.2,1.6h-37c-1.7,0-3.2-0.5-4.4-1.6c-1.1-1.2-1.6-2.7-1.6-4.4L976.4,10.2z"/>
	<path id="Path" class="st0" d="M128.5,223.1c-2.9,2.3-3.5,6.2-1.8,11.6c1.5,4.8,5.2,10.7,10.9,17.8c23,28.4,50.3,51.9,82.1,70.7
		s65.7,32.7,101.9,41.6c36.4,9.1,73.5,13.6,111.4,13.6c48.5,0,94.8-7.1,138.7-21.3c43.9-14,80.6-33.8,110-59.2
		c10.3-9.1,15.5-16.3,15.5-21.7c0-2-0.8-4-2.5-6c-2.3-2.3-5.1-3.1-8.3-2.3c-3.2,0.8-7.8,2.7-13.6,5.8
		c-28.2,14.8-62.6,26.6-103.1,35.4c-40.4,8.9-82.5,13.4-126.4,13.4c-54.4,0-107-7.4-157.7-22.2c-50.7-14.8-95.6-37.9-134.8-69.3
		c-5.7-4.5-10.3-7.3-13.9-8.6C133.5,221.1,130.7,221.4,128.5,223.1L128.5,223.1z"/>
	<path id="path6" class="st0" d="M642.2,234.6c-3.2,3.1-4.1,6.3-2.5,9.7c1.1,2.5,3.2,3.9,6.2,4.2c3.1,0.5,7.5,0.2,13.2-0.9
		c9.2-2,18.9-3.4,28.9-4.2c10-0.6,18.7-0.5,26.1,0.5c7.4,1.1,12,2.9,13.9,5.5c2.8,4.2,1.8,12.9-3,26.4c-4.6,13.4-10.9,26.4-19,39.1
		c-3.1,5.1-4.9,9.1-5.5,12c-0.6,2.9,0.2,5.4,2.3,7.4c1.4,1.4,2.9,2.1,4.6,2.1c4.5,0,10.9-3.9,19.4-11.8c15.3-13.3,26-29,32.1-47.2
		c3.4-9.4,5.5-19.3,6.2-29.6c0.8-10.3-0.4-17.7-3.5-22.2c-2.9-4.3-9.4-7.9-19.4-10.6c-9.9-2.8-19.8-4.2-29.8-4.2
		c-19.6,0-38.1,4.6-55.7,13.9C650.3,228.2,645.4,231.6,642.2,234.6L642.2,234.6z"/>
</g>
</svg>
