<?xml version="1.0" encoding="utf-8"?>
<!-- Generator: Adobe Illustrator 25.4.1, SVG Export Plug-In . SVG Version: 6.00 Build 0)  -->
<svg version="1.1"
	 id="svg8" xmlns:cc="http://creativecommons.org/ns#" xmlns:dc="http://purl.org/dc/elements/1.1/" xmlns:inkscape="http://www.inkscape.org/namespaces/inkscape" xmlns:rdf="http://www.w3.org/1999/02/22-rdf-syntax-ns#" xmlns:sodipodi="http://sodipodi.sourceforge.net/DTD/sodipodi-0.dtd" xmlns:svg="http://www.w3.org/2000/svg"
	 xmlns="http://www.w3.org/2000/svg" xmlns:xlink="http://www.w3.org/1999/xlink" x="0px" y="0px" viewBox="0 0 1000 618.1"
	 style="enable-background:new 0 0 1000 618.1;" xml:space="preserve">
<g id="layer1" transform="translate(-19.826464,201.34222)" inkscape:groupmode="layer" inkscape:label="Layer 1">
	<path id="path74280" inkscape:connector-curvature="0" d="M725.4,416.7c-1.8-15.4-4.1-37.6-4.1-57.3c0-12.1,1.7-61.1,1.7-100.4
		c0-33.2-7.2-92.3-7.2-124.2c0-19.3,1.4-45.4-0.7-54.6c15.4-10,28.8-16.5,71.2-42c13.7-8.4,39.9-22.4,39.9-39.4
		c0-7.5-2-12.4-12.6-21.2c-7.4-5.9-15.4-7.6-24.5-7.6c-21.6,0-31.3,21.6-49.5,32.8c-27.6,16.8-42.2,25.1-47.9,28.3
		c-2.2-1.1-11.7-6.6-26.8-6.6c-15.8,0-34.1,7.1-34.1,27.6c0,9.3,2.9,19.6-9.6,26.2c-7.1,4.5-41.5,24.1-78,46.2
		c-30.8,18.6-45.1,17.1-58.2,24.9c-12,7.2-15.1,16.3-15.1,24.1c0,7,4.3,15.8,5.9,17.8c8.3,10.5,15.7,16.3,28.7,16.3
		c22.1,0,40.5-19.3,74.6-43.6c21.3-15.1,40.8-30.9,52.3-30.9c10.3,0,17.4,7.8,17.4,39.4c0,106.1-6.4,122.9-6.4,196.4
		c0,13.3,0.5,37.8,0.9,47.9h-56.2V243.1l-108.2,91.2l-108.3-91.2v173.6H19.8v-618.1h341.4L478.8-77.6l117.4-123.7h343.2V62.9
		c-10.8,16.7-44,73.6-66.3,131.6c-7.2,19-10.7,32.6-20.3,32.6c-10.5,0-11.5-10.4-12.5-19.9c-2.1-20.3-6.7-58.2-8.8-72.3
		c-4.1-27-9.3-55.5-39.6-55.5c-22.4,0-45.8,12.2-45.8,45.7c0,19,9.6,51.9,26.1,95.2c6.4,17.1,40.8,107.3,45.8,120.3
		c9.1,23.8,21.6,30.4,41.3,30.4c25.1,0,33.8-9.2,44.1-44.5c8.8-30,23.7-79,36.1-109.8l0,0v199.9L725.4,416.7z M1019.8,73.7v343
		h-56.5v-251C975.5,139.7,1004.6,93.9,1019.8,73.7 M963.4,27.9v-229.3l56.5,34v125.6C1006-27.3,976.9,7.9,963.4,27.9 M509.8-145.1
		l-31.1,32.8l-84.2-88.6l106.9,47L509.8-145.1z M513.6,336.2h38.8l10.5-8.8v-32.8L513.6,336.2z M394.4,416.7h46.5v-83l-46.5-39.1
		L394.4,416.7z"/>
</g>
</svg>
