<svg id="Layer_1" data-name="Layer 1" xmlns="http://www.w3.org/2000/svg" viewBox="0 0 1639 350"><path d="M-137,209H29.5V375.5H-137V209Z" transform="translate(137 -209)"/><path d="M46.5,209H213V375.5H46.5V209Z" transform="translate(137 -209)"/><path d="M593.5,274.5c7.2-1.1,15.1,1.4,19.9,7.1a20.6,20.6,0,0,1,2.5,23.4c-4.6,8.2-15,12-24,10s-17.1-10.3-16.7-20,8.3-19.3,18.3-20.5Z" transform="translate(137 -209)"/><path d="M317.5,279h52.4q24.5,62.1,49,124.1c4.2,10.4,8.1,20.9,12.4,31.1,21-51.7,42.3-103.3,63.1-155.1,16.8-.3,33.6,0,50.4-.1V489c-12.1,0-24.3.1-36.4-.1.2-51.6,0-103.3.1-154.9,0-2.4-.1-4.7-.2-7a22.7,22.7,0,0,0-1.9,3.4c-20.8,52.8-42,105.6-62.7,158.5-8.6.3-17.3,0-25.9.1-21.5-52.8-42.7-105.8-64-158.7l-1.8-3.2c-.5,22.6-.1,45.2-.2,67.9v94H317.5V279Z" transform="translate(137 -209)"/><path d="M692.6,338.3a99.2,99.2,0,0,1,53.5.2,43.4,43.4,0,0,1,10.2,4.3c-.2,11.5,0,22.9-.1,34.4-11.6-8.9-26.3-14.5-41.1-12.6a42,42,0,0,0-29.9,16.6c-9,11.7-11.1,27.3-9.5,41.7,1.1,11.2,5.8,22.5,14.5,29.9s21.8,10.9,33.7,10,22.8-6.3,32.3-13.2c.1,10.8,0,21.7.1,32.6-14.7,8.7-32.4,11-49.2,10.2s-34.4-7.5-46.9-19.6-21-31.7-21.8-50.4,3.1-39.6,14.2-55.8c9.4-13.9,24-23.7,40-28.3Z" transform="translate(137 -209)"/><path d="M1085.9,336.1c16.7-3,34.1-.8,49.9,5.1v33.1a63.8,63.8,0,0,0-37.9-11.1c-6.7.2-14.1,3.1-17.1,9.5s-.8,14.6,5.2,18.4c10.2,6.8,22.4,9.7,32.9,15.9,8.4,4.6,16.4,10.8,20.7,19.6,7.9,16.5,4.5,38.3-9.4,50.6s-32.5,15.9-50.1,15.3c-12.5-.8-25.1-3.3-36.6-8.4,0-11.6-.1-23.2,0-34.8a80.3,80.3,0,0,0,32.7,14.1c8.2,1.3,17.2,1.4,24.9-2.3s8.6-14.1,4.3-20.5-10.1-7.6-15.8-10.3c-10.6-4.7-21.7-8.7-31-15.9a37.4,37.4,0,0,1-13.5-20.4c-2.9-12-2-25.5,5-35.9,7.9-12.2,21.7-19.5,35.8-22Z" transform="translate(137 -209)"/><path d="M836.8,340.8c10-6,22.6-6.5,33.5-2.8-.1,12,0,24-.1,36a37.8,37.8,0,0,0-24.3-5.7c-10.2,1.1-18.3,9-22.5,18s-5.4,20.3-5.2,30.7c0,24,.1,48,0,72H782.8c-.1-50.1,0-100.3-.1-150.4,11.9-.2,23.7-.1,35.6-.1-.1,8.6,0,17.3-.1,25.9,3.9-9.4,9.6-18.5,18.6-23.6Z" transform="translate(137 -209)"/><path d="M578.5,338.5c11.9,0,23.9-.1,35.8.1-.1,50.1,0,100.3-.1,150.4H578.5V338.5Z" transform="translate(137 -209)"/><path d="M1019.5,373.6a63.6,63.6,0,0,0-31.4-31.8c-16-7.3-34.3-8.2-51.6-6s-35.8,10.8-47.3,25.3c-10.5,12.9-15.6,29.5-16.6,45.9-1.5,19.5,1.8,40.1,13.2,56.3,9.7,13.9,25,23.5,41.6,27.1a103,103,0,0,0,42.1,0,70,70,0,0,0,41.4-25.5c9.8-12.4,14.7-28.1,15.8-43.8S1026.2,388.4,1019.5,373.6Zm-34.7,69.1c-3.5,7.7-9.8,14.3-17.7,17.4a48.4,48.4,0,0,1-29.4,1.3,36,36,0,0,1-22.5-18.6c-5.9-11.6-6.7-25-5.5-37.7s5.1-23.4,13.9-31.4c6.4-6,15.1-8.9,23.7-9.4,10.8-.7,22.3,2.4,30.1,10.3s11.5,20,12.4,31.3S990,431.2,984.8,442.7Z" transform="translate(137 -209)"/><path d="M1307.9,378a63.7,63.7,0,0,0-30.9-35c-16.4-8.3-35.5-9.5-53.4-7.3-14.5,1.9-28.8,7.4-39.8,17.1-13.5,11.6-21.5,28.7-23.8,46.2s-1.5,35.9,5.7,52.3a66.8,66.8,0,0,0,36.5,35.5c16.1,6.3,33.9,7,50.8,4.3s33.6-12,44.2-25.9,16.4-33.1,16.3-51.3C1313.8,401.8,1312.3,389.4,1307.9,378Zm-32.5,51c-1.3,7.9-4.1,15.8-9.3,22.1s-13,10.1-21,11.3-17.7.7-25.8-2.8-15.4-11.2-18.9-19.9c-4.3-10.3-5.2-21.7-4.3-32.8s3.8-21.6,10.9-29.9,16.3-12.1,26.3-12.6,21,1.6,28.8,8.5,11.2,14.9,13,23.9A89.4,89.4,0,0,1,1275.4,429Z" transform="translate(137 -209)"/><path d="M1502,367.7V338.5c-11.9,0-23.8-.1-35.6.1-.3-15.1-.1-30.1-.2-45.1-11.8,3.6-23.6,7.4-35.6,10.8-.3,11.4,0,22.8-.1,34.2h-52.7c.2-9-.6-18.1.6-27,1.1-7,5.2-14.1,12.1-16.8,8.6-3.5,18.3-1.2,26.5,2.4-.1-10.3.1-20.5-.1-30.8-17.3-4.8-37.1-3.8-52.5,6.1a50.1,50.1,0,0,0-20.3,27.8c-3.8,12.4-1.8,25.6-2.4,38.3-8.4,0-16.7-.1-25,.1q.1,14.4,0,28.8c8.4.2,16.7,0,25.1.2-.1,40.4,0,80.9,0,121.4h36V367.5h52.7c0,25.8-.1,51.6,0,77.4.2,12,2.2,24.9,10.2,34.4s17.8,12.2,28.4,13,22.6-.6,32.9-5V457.7c-7.9,5.3-18.8,7.4-27.4,2.6-5.1-2.8-7.1-8.9-7.8-14.4-1-9.2-.4-18.6-.6-27.9,0-16.8.1-33.6,0-50.4C1478.2,367.6,1490.1,367.2,1502,367.7Z" transform="translate(137 -209)"/><path d="M-137,392.5H29.5V559H-137V392.5Z" transform="translate(137 -209)"/><path d="M46.5,392.5H213V559H46.5V392.5Z" transform="translate(137 -209)"/></svg>