<svg id="svg3003" xmlns="http://www.w3.org/2000/svg" viewBox="0 0 250.3 250.3"><g id="g3810"><g id="g3025"><path id="inner_artwork" data-name="inner artwork" d="M155.8,62.3a70.3,70.3,0,0,1,12.8,9.4l-1.5,1.4c-7.1-.7-14.5.2-21.3.3-.7-.8-2.2-1.9-.8-2.8l10.8-8.3Zm125.6,88.2c.1,3.2.4,6-.9,9.3-13,3.7-21.5-10.1-34.1-8l1.4,7.1c11.7.4,19,11.6,31,11.1-1.7,3.4.8,12.4-6.8,8.8-7.9-1.9-13.6-8.8-22.2-8.8-1,1.9-.4,4.5-.5,6.8,9,1.4,15.6,9.1,24.7,10.5-.9,3.2-1.7,6.6-4.3,8.6-7.4-1.8-13.2-8.5-21-8.3l-1.4,6.5c7.5.2,12.3,6.9,19,8.8.2,2.8-2.3,5.3-3.7,7.7-6-1.8-10.5-6.9-17.3-6.5-.1-2.6,1.4-5.5.8-8.2-7.6,2.2-12.8-4.9-18.4-9.2-.2-13.9-14.9-23.1-15.7-36.2a19.5,19.5,0,0,1,1.5-8.3c4.8-11.2,3.3-25.7-2-36.1-1.6-2.8-4.5-4.9-7.1-6.6,3.8,8.3,8.6,18,6.2,28.2-.3,7.8-4.9,15.3-4.9,22.8a15.3,15.3,0,0,0,2.1,8.1c6.1,11.1,17.2,21.6,13,35.5-1.1,4.3-4.5,7.6-5.4,12,7.2,5.9,14.1,12.7,23.6,13,3.4-2.1,1.5-11.8,8.5-7.3l10.3,5.1c-.8,2.7-3.1,5.2-5.1,7.1-3.9-1.9-7.7-4.2-12.5-4-1.5,1.5-2.7,3.2-2.6,5.4a22.4,22.4,0,0,1,9.4,4c-1.3,2.8-3.9,4.6-6.3,6.8l-7.9-2.9c-1.3,1.9-4.1,3.9-3.1,6a18.8,18.8,0,0,1,5.1,3.1c-3.5,3.8-8,6.3-12.3,8.8-3.6-12-15.8-20.4-14.7-34.3l-.6-.6c-2.8,3.2-1.9,8.3-1.7,12.5,3.4,8.7,11.5,15.4,12.8,25-1.4,2.5-4.7,2.9-7.1,4,.3-17.2-25.9-30.3-9.1-47.7,5.6-8.6,14.9-16.7,11.6-28.5s-15.4-18.3-15.3-31.1v-1c2.7-13.2,11.1-27.3,4.3-41.4-1.9-5.7-6.2-12.2-12-14.5,8.6,9.8,12.1,25.9,7.1,39.2-2.5,5.3-5.9,11.5-6.2,17.7h0a14.8,14.8,0,0,0,2.5,9.6c6.6,10.6,17.9,22.2,11.4,36-7.4,11.1-20.3,22.4-13.1,37,5.2,8.7,13.3,17.4,11.1,28.1L195,264c5.7-19.9-22.2-31.7-10.5-51.7,7.2-10.7,20.1-20.7,12.8-34.9-4.4-8.8-13.4-14-13.1-25l.3-1.9c2.9-15.6,14.8-30.3,6.5-47a29.9,29.9,0,0,0-11.4-12.8l-.2.3a34.4,34.4,0,0,1,7.3,37.2c-2.4,7.3-7.7,14.5-8.8,22.3a18.5,18.5,0,0,0,2,11.5c6.2,9.8,17,20.1,10.2,32.7-7,10.4-18.9,20.6-14.2,34.1,5.3,11.8,16.1,23.1,10.3,37.8l-8.8,2c7-14.3-3.5-28.5-9.7-40.9-7.5-17.8,16.1-26.4,16.5-42.6-.1-10.5-11.3-16.5-13.6-26.2-4.9-4.1-9.9,1.6-15.7.6-4.2.8-10.8-5.9-13.3,1.4-3.1,10.7-16.9,18.6-10.8,31.3s19.7,19.5,15,34.1-17.9,26.6-9.4,42.3c-3.5-1.1-10,1-9.9-4.6-5.4-19,17.6-30.1,10.5-49.1-3.3-11.7-18.4-18.1-15-32.1,2.4-11.6,15.3-19.6,13.5-32.3a20.6,20.6,0,0,0-.7-3.2c-4.9-13.7-14.7-27.3-8.9-43.2,1.7-4.6,4.9-8.5,7.7-12.5-9.4,5-14.1,15.6-13.9,26.4s8.3,21.8,9.5,32.5a19.4,19.4,0,0,1-3.3,13.5c-6.1,8.4-14.2,17.2-10.5,28.2s17.4,17.8,16.5,30.6c-.1,15.3-17.8,24.8-12.8,41.8l-8.8-2.8c-3.5-15.2,12.6-22.9,12.8-37,2.3-16.1-18.3-22-17-37.8-.1-11.9,10.4-19.5,15-29.5a19.2,19.2,0,0,0,1-7c-.6-11.1-10.6-19.7-8.9-32.2a39,39,0,0,1,9.6-24.2c-8.2,3.3-11.6,12.8-13.9,20.8-4,12.7,5.5,24.2,6.4,35.6.4,5.1-.8,10.1-5.5,15.2-6.9,8.1-13.8,18.2-8.9,29s21.6,21.2,14.5,36.1c-3.8,9.4-13.1,16.5-12.7,27.6-2.5-1.1-5.1-2.1-7.2-4,0-14.1,20.1-22.9,10.6-37.8-.9,2.9-1.1,6.9-1.7,10.2-3.4,8.7-10.5,15.6-13.1,24.5-4.5-1.7-9.1-5.4-12.8-9.1l5.1-3.2c-.5-1.9-2.1-3.5-3.4-5.1-3.3-.5-5.5,1.7-8.2,2.6a41.2,41.2,0,0,1-6.6-6.6c1.7-4.8,15-.8,8.3-8.8-4.6-2.8-9.1,1.3-13.1,3.2l-5.4-6.9c4.7-2.8,9.3-6.8,15.1-5.6,1.4,2.5,1.5,6.3,4.2,7.6,9.8-.2,16.7-7.5,24.2-13.3-5.2-7.8-9.5-18.5-4.9-27.9s13.4-17.3,13.9-27.7a17.7,17.7,0,0,0-1.4-7.5c-5.1-13.2-6.9-31,2.9-42.6-5.3,1.4-8.4,8-10.2,13.1-5.9,12.8,1.5,24.7,1.8,37a29.9,29.9,0,0,1-.7,6.7c-5,10.1-13.2,19-14.5,30.7-5.8,3.7-10.5,10.1-18.8,7.9a23.2,23.2,0,0,0,1.2,8c-6.6-.3-11,4.5-16.5,6.8-2.9-.9-3.7-4.7-4.8-7.4,6.4-2.1,11.1-8.6,18.4-8.5.9-2.4-.4-4.5-.8-6.8-9.2-4.1-23.8,20.2-25-.9,9.2-.5,15.1-9.1,24.1-9.9l.3-6.8c-10.3-1.1-16.9,9.6-27.3,8.5l-2.2-9.1c11.9.8,19-9.9,30.4-10.5,1.5-2,1.7-4.9,2-7.7-12.4-1.6-21,12.2-34.1,8,0,0-.5-5.7-.7-9h0c-.1-1.2-.2-2.1-.2-2.1,11.8,4.6,22.1-3.9,32.1-8.2,2.6-.8,6.6.5,7.7-2.3s3.9-4.7.6-6.3c-14.7-2-24.5,15.8-39.5,7.7L31.3,137C34.5,94.2,58.6,52.9,98.7,32.5c16.2-9.3,36.3-14,56.7-14.2,24.5-.2,49.3,6.3,67.7,19.3,17.9,11,35,29.1,44.3,47.5,8.9,16.1,13,34.1,14.2,53.4-15.5,11.7-25.9-11.1-41.7-6,.8,2.5,1.3,5,3.1,7.1,14-.1,23.7,14.6,38.3,8.8v2.1ZM102.9,97.8c-9.8-6.4-22.3-.4-31.5,3.2-.9-8.7-4.4-16.5-11.7-22.2a5.7,5.7,0,0,0-2.5-1.1,1.2,1.2,0,0,0-1.4.8c3.3,20.4-10,34.6-19.3,50,3.1,2.6,8.1,2.2,11.9,1.4,9.9-3.9,19.4-10.9,31.2-8.5,3.5-6,9.4-11.7,14.2-16.5,3-2.5,7-4.1,9.1-7.1ZM133,110.6c-.1,1.2.1,3.4,2,2.6,3-4.1,8.2-.9,11.4-.6v-1.1c-1.8-2.8-5.4-4.2-9.1-4.1l-2.5.4A2.3,2.3,0,0,0,133,110.6Zm46.3-12.2c-2.6-5.9-8.7-8.2-14.2-9.7a75.2,75.2,0,0,0-8.2-.5,8.6,8.6,0,0,0-1.6,0c-7.7.1-15.2,2.1-19.7,8.5-.6,1.8-3.5,4.3-.9,6,6-.4,12.8-1.2,16.8,3.9,0,4.6,2.9,10.6-2,12.8-4.1-3.8-8.9,1.6-13.3-1.4-2.1-1.2-3.4.2-4.3,2a33.4,33.4,0,0,0,15.9,31.2c4.5,1.6,10.4,3.2,15.1.9,11.2-5.2,15.8-17.1,17.9-28.1-.3-2.1-.2-6.2-3.1-6.3-3.4,2.1-8.2.9-11.7,0-2.1.7-2.2,3.7-4.5,4.3l-1.5-1.2c-1.2-5.2-2-12.5,2.9-16.1s11.7-3.2,17.3-1.5c1-1.8-.6-3.2-.9-4.8Zm-5.7,9.3h-1.1c-1.9,1.3-7.7.4-5.6,4.8,3.6-2.8,8.6-.8,12.2.6,1.3-.7,1-2,1.1-3.2s-3.9-2.3-6.6-2.3Zm41.3-40c-7-.4-12.9,3.6-19.3,5.4-.6-5.5,3.6-11.3,4.5-16.8-10.4.7-18.7,7-27.3,12-2-4.8-4-9.7-5.9-14.5L178.2,43l.3-1.4-15.3-.9c-2.7-4.6-3.7-10.2-6.8-14.5-2.6,4.9-4.3,10-6.9,14.8l-15.3.9V43l11.6,10.5c-1.4,5.4-2.7,11.3-6.2,15.4-6.8-4.1-13.6-8.6-21-11.4-1.8-.6-4.4-1.5-6-.3,2.4,5.2,5.7,10.8,5.1,16.5-3.1-.6-5.6-2.6-8.5-3.4s-7.7-2.9-11.1-1.7c5.7,7.9,10.3,16.3,11.9,25.8,18.9-9.1,40.9-14.1,63.7-10.2,10.7,1.7,20.5,6.1,30.1,9.7.4-10.1,6.7-18.1,11.1-26.2Zm32.4,54.6c9.6,2.5,19.3,13,29.5,6.2-8.9-14.8-22.1-28.4-18.5-47.7a2.3,2.3,0,0,0-1.6-2.9c-5.8,2.4-10.3,8.1-12.6,13.7-.9,3.3-1.5,6.8-2.8,9.9-6.9-3.6-14.3-7.1-22.7-6.2-3.1.4-7.4.6-8,3.7,9.6,5.1,17.4,13.6,23.3,22.7,4.1-.7,9.1-.1,13.4.6ZM146.1,135.6l.3,1.7c3.7,2.5,4.8,6.7,9.9,6.3s8-4,10.3-7.4c-6.2-.9-13.7.5-20.5-.6Zm5.1-7.7c.2.8-.4,1.9.6,2.3,3-.6,8.5,1.6,10.2-2a6.9,6.9,0,0,0-5.1-1.9A10.6,10.6,0,0,0,151.2,127.9Z" transform="translate(-31.3 -18.3)"/></g></g></svg>