<svg id="Layer_1" data-name="Layer 1" xmlns="http://www.w3.org/2000/svg" viewBox="0 0 247.1 47.1"><path d="M347.6,383.5h-3.5c.6-2.5.3-5.2-2-6.6a4.8,4.8,0,0,0-4.8-.2,4.3,4.3,0,0,0-2.2,2.9,6.5,6.5,0,0,0,1.6,4.6l8.4,9.6c2.3,2.9,2.4,7.9.5,11.1a10.3,10.3,0,0,1-10,5.9c-3.3,0-5.8-2.1-9-2.3a1.2,1.2,0,0,0-1,.7l-.2.8-2.5.8L319,399.4l3.4-1.1c1.3,3.7,5.1,7.3,9.2,7.4a5.8,5.8,0,0,0,6-2.9c1.4-2.4.1-5.3-1.4-7.2-3.6-4.5-8.9-8.3-8.6-14.4a9.7,9.7,0,0,1,11.8-9c1.7.3,3.2,1.2,5,1.2a2.2,2.2,0,0,0,1.8-1.3v-.3h3.1Z" transform="translate(-179.4 -371.7)"/><path d="M255.9,401.9a1.7,1.7,0,0,0,.6,1.2,3.3,3.3,0,0,0,1.5.5l-.4,2.8H245.2l.5-2.8a3,3,0,0,0,2.9-1.7l.4-1.9,2.7-15.6a2.4,2.4,0,0,0-.3-1.4,1.4,1.4,0,0,0-1.5-.2h-.6l-1.5-2.5,12.8-8.3Z" transform="translate(-179.4 -371.7)"/><path d="M273.4,376.1a3.7,3.7,0,0,1-1,4.2,6.5,6.5,0,0,1-5.4,2,2.9,2.9,0,0,1-2.1-1.6,4.1,4.1,0,0,1,1.8-4.5C268.4,374.9,272,373.4,273.4,376.1Z" transform="translate(-179.4 -371.7)"/><path d="M242.5,401.8l4.7-29.7-12.5,8,1.5,2.5c.6-.1,1.3-.5,1.8-.1a1.1,1.1,0,0,1,.5,1l-3.1,18.3-.3.6a2.6,2.6,0,0,1-2.6,1.2,28,28,0,0,0-.6,2.8,6.7,6.7,0,0,1,3.5.8,2.6,2.6,0,0,1,.9,1.7,3.2,3.2,0,0,1-1.3,2.9c-3.3,2.3-8.3,1.3-11.7,0-7.6-3.3-13.7-11.3-14.2-19.5a11.5,11.5,0,0,0,6.1-3.7c2.3-2.7,3.2-7,1.6-10.1a10.7,10.7,0,0,0-5.4-5.1c-6-2.4-13.8-1.7-20.4-1.1-3.9.7-8.1,1.4-10.8,4.8a5,5,0,0,0-.4,4.6,4.2,4.2,0,0,0,7.6-.5,3,3,0,0,0-1.3-3.2c1.7-1.6,3.9-1.9,6.2-1.9h0l-4.7,26.1-.5,1.1c-1.2,1.8-3.2,1.9-5.1,1.7l-.6,3.8h17.4c.1-1.2.4-2.3.5-3.5a8.8,8.8,0,0,1-2.3-.7,2.3,2.3,0,0,1-1-2.2l1.6-8.8h2.7a35,35,0,0,0,14.3,19.7c6.8,4.3,16.8,6.9,24.5,2.9,1.8-1,3.4-2.8,3.3-4.9s-2.2-3.7-3.8-4.7h5.6a15.5,15.5,0,0,0,.4-2.9,3.6,3.6,0,0,1-1.9-.8C242.6,402.4,242.4,402.1,242.5,401.8Zm-44.1-11.9,2.3-14.1c3,.1,6,.2,7.8,2.9s1,4,.2,5.7C206.9,388.5,202.6,390,198.4,389.9Z" transform="translate(-179.4 -371.7)"/><path d="M269.1,401.1a2.8,2.8,0,0,0,.4,1.8,3.5,3.5,0,0,0,2.4.8,25.1,25.1,0,0,0-.4,2.7h-13l.4-2.7c1.3-.1,2.7-.4,3.2-1.7l1.3-7.7a1.2,1.2,0,0,0-.7-1c-.4-.3-1-.1-1.5.2l-1.4-2.9,12.5-7.7Z" transform="translate(-179.4 -371.7)"/><path d="M424,394.9a3.1,3.1,0,0,0-2.8.3,2.9,2.9,0,0,0-1.3,2.7c0,1,1.1,1.4,1.9,1.8l-1,1a3.7,3.7,0,0,1-3.9.9c-2-.8-3-2.9-3.3-4.8l12.9-6.2a16,16,0,0,0-1.6-4.8c-1.9-3.4-5.9-4.2-9.4-3.2s-8.5,6.7-9,11.5,1,8.4,4.8,10.8,8,1.4,11-.6,3.7-4,3.5-6.8A3.1,3.1,0,0,0,424,394.9Zm-8.4-8.5c1-.4,2.6-.4,3.2.8a7.4,7.4,0,0,1,.6,3.4l-6.1,2.9C413.1,390.9,413.2,387.9,415.6,386.4Z" transform="translate(-179.4 -371.7)"/><path d="M403.9,402.4a1.6,1.6,0,0,1-.4-1.2c.6-4.9,1.9-9.4,2.1-14.4a4,4,0,0,0-2.2-3.8c-4-1.6-7.1,1.3-9.9,3.8h-.1l.6-4.8-11.9,7.7c-.7-2.3-2.1-5-4.6-6.1s-8-.6-10.9,1.7c-4.8,3.4-6.2,8.9-5.3,14.5-1.8.8-3.3,2.8-5.6,1.9a3,3,0,0,1-1.2-3.2l1.6-9.8c1.9.1,4.1-.3,5.8.6l1.6-4.5h-6.7c.2-1.9.6-3.8.7-5.7l-10.9,7.1-.4,2.5h3.2l-1.4,7.9c-.3,2.3-.7,5,0,7.3a5,5,0,0,0,4.2,3.4c4.2.3,7.5-2.1,10.8-4.4,2.8,2.7,6.6,4.7,10.6,3.2s7.8-7.3,8.4-12.3c.8-.6,1.5-1.5,2.6-1.1a1.4,1.4,0,0,1,.7,1l-1.2,7.6-.5,1a3.4,3.4,0,0,1-3.1.9l-.5,3.2h12.5l.3-3.4a2.1,2.1,0,0,1-1.3-.5,1.3,1.3,0,0,1-.5-1.1l1.1-7.4a5.2,5.2,0,0,1,3.1-4.2,2.1,2.1,0,0,1,2.5.6,2.5,2.5,0,0,1,.4,1.9l-1.3,8.8-.4.7a2.4,2.4,0,0,1-2.5,1.3c-.2,1.1-.3,2.2-.4,3.3h12c.2-1.1.3-2.2.5-3.3A3.1,3.1,0,0,1,403.9,402.4Zm-29-6.5c-.7,2.4-.8,5-2.8,6.7a2.6,2.6,0,0,1-2.7,0c-1.7-1.4-1.3-3.8-1.2-5.9s.6-6.8,2.9-9.5a2.9,2.9,0,0,1,2.7-.7,2.7,2.7,0,0,1,1.1,1C375.8,390.1,375.2,393.3,374.9,395.9Z" transform="translate(-179.4 -371.7)"/><path d="M234.7,387.7a8.3,8.3,0,0,0-3.6-3.8c-3.5-1.9-8.2-1-11.2,1.3a12.7,12.7,0,0,0-6.1,13.1c.6,3.4,3.2,7.1,6.7,8.1s8.3-.8,11.2-4S237,392.7,234.7,387.7Zm-7,9.5c-.7,2.2-1,5.4-3.9,5.8a2.3,2.3,0,0,1-2.4-1c-1-2.6-.3-5.6.1-8.3s1-5.1,3.3-6.7a2.4,2.4,0,0,1,3.3.8C229.3,390.8,228.3,394.3,227.7,397.2Z" transform="translate(-179.4 -371.7)"/><path d="M318.9,387a11.1,11.1,0,0,0-18.6,1.8c-1.3,2.6-1.3,6.4.6,8.7.3.5.9,1,1.2,1.5a4.1,4.1,0,0,0-1.7.7,5.5,5.5,0,0,0-2.5,3.6,2.4,2.4,0,0,1-1.2-.3,2.3,2.3,0,0,1-1.1-1.9l1.9-13.2a4,4,0,0,0-1.3-3.4,5.5,5.5,0,0,0-5-.9c-2.4.8-4.3,3.1-6.3,4.8l.6-5.6-12.4,7.9a16.7,16.7,0,0,0,1.6,2.4,3,3,0,0,1,1.6-.2c.4.3.7.6.6,1.1-.5,2.8-.8,5.7-1.5,8.4a2.8,2.8,0,0,1-2.5,1.3l-.5,2.7h11.7l.4-2.8a3.1,3.1,0,0,1-1.4-.7,1.2,1.2,0,0,1-.4-1.1l1.2-7.5a5.8,5.8,0,0,1,2.2-3.4,3.1,3.1,0,0,1,2.9-.5,2.3,2.3,0,0,1,1,2.2l-1.5,9.2-.2.5a3.8,3.8,0,0,1-2.7,1.4l-.4,2.7h12.3c-2.6,1.4-6.4,3.2-6.5,6.7a4.5,4.5,0,0,0,1.9,3c5.2,3.5,13.5,3.5,18.9.2,3.6-2,7.5-5.6,8.1-9.9a3.2,3.2,0,0,0-1.1-2.4c-2.8-1.7-6.6-1.1-9.8-.8-1.5,0-3.5.6-4.4-.9a2.6,2.6,0,0,1,.1-2.3,13.1,13.1,0,0,0,2.7.6c3.9.5,7.4-.7,9.6-4s1.7-4.8,3.4-6.9,2.6-1.2,4.3-1.1l1.5-6.1A8.1,8.1,0,0,0,318.9,387Zm-9.2,21.8a2.5,2.5,0,0,1,2.1,1.1,2.1,2.1,0,0,1-.6,2.1c-2.8,2.6-6.4,3.5-10.4,3.2a4.2,4.2,0,0,1-3.1-1.9,4.4,4.4,0,0,1,.6-4.4l1-1.1C302.3,409.5,306.3,409.3,309.7,408.8Zm2.2-14.2c-.5,1-.9,2.2-2.1,2.7a2.6,2.6,0,0,1-2.4-.6c-1.4-1.7-.6-4.3-.4-6.3s1-3.5,2.8-4a2.2,2.2,0,0,1,2.6,1.1C313.2,389.8,312.4,392.4,311.9,394.6Z" transform="translate(-179.4 -371.7)"/></svg>