<?xml version="1.0" encoding="utf-8"?>
<!-- Generator: Adobe Illustrator 24.1.2, SVG Export Plug-In . SVG Version: 6.00 Build 0)  -->
<svg version="1.1" id="Layer_1" xmlns="http://www.w3.org/2000/svg" xmlns:xlink="http://www.w3.org/1999/xlink" x="0px" y="0px"
	 width="713.6px" height="201.2px" viewBox="0 0 713.6 201.2" style="enable-background:new 0 0 713.6 201.2;" xml:space="preserve"
	>
<g>
	<path d="M178.8,197.2H146l-56.4-78l-56.8,78H0L72.8,96.8L6,4.4h32.8l50.8,70l50.8-70h32.8L106,96.8L178.8,197.2z M349.2,142.4
		c0,16.8-5.6,30.4-16.8,40s-27.2,14.8-48,14.8h-90v-86h-43.2l18-24.8h25.2v-82h86.4c19.6,0,34.4,4.8,44.8,14s15.6,21.6,15.6,36.4
		c0,18.4-8.4,32.8-25.2,42c10.8,4,18.8,10.4,24.4,18C346.4,122.4,349.2,132,349.2,142.4z M223.6,86.8h55.2c11.2,0,19.6-2.4,25.2-7.6
		c5.6-4.8,8.4-12.4,8.4-22.4c0-8.4-2.8-15.2-8.8-20c-5.6-4.8-14-7.2-24.8-7.2h-55.2L223.6,86.8L223.6,86.8z M319.6,141.6
		c0-10-3.2-18-9.2-22.8c-6-5.2-15.2-7.6-27.2-7.6h-59.6v60.4h59.2c11.6,0,20.8-2.8,27.2-7.6C316.4,158.8,319.6,151.2,319.6,141.6
		L319.6,141.6z M547.6,100.8c0,14.8-2,28.8-6.4,40.8c-4.4,12-10.8,22.8-19.2,32c-8.8,9.2-18.8,16.4-30,20.8
		c-11.2,4.8-24,6.8-38.4,6.8c-14,0-27.2-2.4-38.4-6.8c-11.2-4.8-21.2-11.6-30-20.8s-15.2-20-19.6-32s-6.4-26-6.4-40.8
		s2-28.8,6.4-40.8s10.8-23.2,19.6-32.4c8.4-9.2,18.4-16,30-20.8C426.4,2.4,439.6,0,453.6,0s26.8,2.4,38.4,6.8
		c11.2,4.4,21.6,11.6,30,20.8S537.2,48,541.2,60S547.6,85.6,547.6,100.8z M389.6,100.8c0,22.8,6,40.8,17.6,54
		c11.6,13.2,26.8,20,46.4,20c19.2,0,34.8-6.8,46.4-20s17.2-31.2,17.2-54s-5.6-41.2-17.2-54.4s-27.2-20-46.4-20s-34.8,6.8-46.4,20
		C395.6,60,389.6,78,389.6,100.8z M640.4,96.8l67.2-92.4h-32.8l-50.8,70l-50.8-70h-32.8l67.2,92.4l-72.8,100.4h32.8l56.4-78l56.8,78
		h32.8L640.4,96.8z"/>
</g>
</svg>
