<svg xmlns="http://www.w3.org/2000/svg" viewBox="0 0 286.5 80.7"><path d="M154.4,421.5c0-21.7,16.6-36.4,38.7-36.4,18.4,0,27.7,10.8,31.9,20.5l-18.3,8.5c-1.8-5.5-7.3-10.2-13.6-10.2-10.3,0-17.1,7.8-17.1,17.6s6.8,17.6,17.1,17.6c6.3,0,11.8-4.7,13.6-10.2l18.3,8.4c-4.1,9.4-13.5,20.6-31.9,20.6-22.1,0-38.7-14.8-38.7-36.4" transform="translate(-154.4 -380.2)"/><path d="M229.5,456.6V386.2h42.7c14.6,0,20.9,9.8,20.9,18s-5.1,14.6-12,16.1c7.6,1.2,13.4,8.1,13.4,17.2s-6.6,19.1-20.8,19.1M271.5,408a4.1,4.1,0,0,0-4.2-4H250.8v8.2h16.5A4.2,4.2,0,0,0,271.5,408Zm1.4,26.5c0-2.6-1.9-4.6-5-4.6H250.8v9h17.1C271,438.9,272.9,437.1,272.9,434.5Z" transform="translate(-154.4 -380.2)"/><path d="M295.6,446.7l11-15.8a33.1,33.1,0,0,0,22.7,9c4,0,7.8-1,7.8-3.7,0-6.8-39.2.1-39.2-27.7,0-11.9,9.9-23.3,29.2-23.3,11.5,0,21.8,3.3,29.8,9.8l-11.4,15.1a35,35,0,0,0-20.6-7c-4.2,0-5.4,1.4-5.4,3.2,0,6.6,39.1.9,39.1,27.1,0,15.5-11.5,24.5-30.4,24.5-14.9,0-25.2-4.4-32.6-11.2" transform="translate(-154.4 -380.2)"/><path d="M440.8,420.5c0,22.3-17.4,40.4-39.7,40.4s-39.8-18.1-39.8-40.4a39.9,39.9,0,0,1,39.8-40.3c22.3,0,39.7,18.1,39.7,40.3m-76.7,0a41,41,0,0,0,74,0,41.1,41.1,0,0,0-74,0Zm58.3,0a21.4,21.4,0,1,1-21.3-21.4A21.3,21.3,0,0,1,422.4,420.5Z" transform="translate(-154.4 -380.2)"/></svg>