<svg id="Layer_1" data-name="Layer 1" xmlns="http://www.w3.org/2000/svg" viewBox="0 0 632.8 63.9"><path d="M526,392.1c-9.7,5.6-20,5.7-30.3,4.8-4.8-.4-9.9-1.3-11.8-6.7s-.1-10.4,3.5-14.6,9.9-6.6,16-7.2,13.5-.8,20.3-1.2c1.2-.1,2.4,0,3.5-.2,2.8-.4,6.5-.7,6-4.3-.2-1.4-4-2.9-6.2-3.2-4.8-.6-9.7-.4-13.2,4a3.7,3.7,0,0,1-2.6.9H492.7c2.4-6.5,6.5-10.8,12.6-12.7a76.6,76.6,0,0,1,41.4-1c7.3,1.8,9.7,7,7.6,15.1-1.7,6.3-3.7,12.6-5.3,18.9-.9,3.3-1.4,6.7-2.1,10.2C537.9,396.9,527.3,395.7,526,392.1Zm4.2-16.6c-6.4.6-12.6.9-18.7,2-1.8.3-3.5,2.6-4.6,4.4s1,3.1,2.2,3.7C516.4,389.2,528.1,383.7,530.2,375.5Z" transform="translate(-363.4 -333.6)"/><path d="M482.2,378.1H437.3c-.5,3.9,1.6,6.3,4.6,6.7s8.8,1.4,12.1-.2c5.6-2.8,11.1-2.5,16.8-2.6a38.9,38.9,0,0,1,10.3,1c-2.3,2.3-4.4,4.9-7.1,6.8-9.2,6.5-19.9,7.9-30.8,7.4a62.2,62.2,0,0,1-16.1-2.5c-9-2.8-12.5-9.8-10.7-19,2.7-13.1,11-21,23.6-24.8a58.5,58.5,0,0,1,29.1-1.1C483,352.7,488.4,364.2,482.2,378.1Zm-17.5-11c-.2-5.9-4.3-6.7-8.2-7.3-7-1.1-12.7,1.7-15.4,7.3Z" transform="translate(-363.4 -333.6)"/><path d="M421.3,349.9c-1.6,5.8-3.1,11.1-4.6,16.3-4.8.3-9.3.4-13.8,1-7.5.9-12.4,4.9-14.4,12.3-1,4.1-2.5,8.2-3.4,12.3s-1.8,3.9-4.7,3.8c-5.5-.3-10.9-.1-17-.1.4-1.8.5-3.2.9-4.5,3.3-12.2,6.9-24.3,10.1-36.5.8-2.9,1.8-4.1,5-4,5.3.3,10.6.1,16.3.1l-1.6,7.6C402.3,351.9,410.6,348.1,421.3,349.9Z" transform="translate(-363.4 -333.6)"/><path d="M590.9,334.8c-5.6,20.5-11.1,40.2-16.7,60.7-4.7,0-10.5.1-16.3-.1-3.7-.1-4.2-2.6-3.3-5.6l7.2-26.1c2.2-7.6,4.4-15.2,6.4-22.8,1.2-4.2,3.4-6.4,8.1-6.2S585.6,334.8,590.9,334.8Z" transform="translate(-363.4 -333.6)"/><path d="M777.4,395.2,774,361.5a43.8,43.8,0,0,0-2.8,3.4c-5.8,8.7-11.9,17.4-17.4,26.4-2.5,4-5.3,5.4-10.3,4-.9-7-1.7-14.3-2.6-21.6s-1.7-14.7-2.5-22.3h7.1c1.2,11.4,2.5,22.8,3.9,35.6l11.2-16.9c3.2-4.8,6.7-9.4,9.5-14.5s5.2-5.5,10.2-4c1.1,11,2.2,22.3,3.3,33.5l1.7,1.5a11.9,11.9,0,0,1,1-3.2c6.3-9.4,13-18.6,19.1-28.2,2.4-3.7,5-5,9.6-3.6-.8,1.4-1.5,2.7-2.4,4-8.3,11.9-16.7,23.7-24.8,35.7C785.2,395.2,782.4,396.8,777.4,395.2Z" transform="translate(-363.4 -333.6)"/><path d="M694.2,382.2c-5.3,8.6-13.2,13.3-23.2,14.7l-2,.2c-19.1,1-27-10.2-19.5-27.7A32.1,32.1,0,0,1,687,350.6c10.3,2.5,15.7,13.6,11,22.9-.5,1-2.6,1.7-4,1.7-11.8.1-23.7.3-35.5,0-4.1-.1-5.2,1.4-5,5.1a11.2,11.2,0,0,0,7.7,10.4c8,2.8,18.9-.2,24.8-6.3,1.8-1.8,4.8-2.6,7.2-3.9Zm-2-12.2c.8-9.1-3.3-14-11.9-14.5s-17.1,3-22.5,10.9c-.7.9-.9,2.2-1.5,3.6Z" transform="translate(-363.4 -333.6)"/><path d="M953.8,351.7l-26,16.4,15.3,27.2c-6,1.8-9.4,0-11.9-5.2s-6.3-11.5-9.4-17.1c-9,3.1-14.3,8.3-15.6,17.5-.9,5.9-1.5,5.8-7.9,4.7l16.8-58.7c1.2-4.4,4.4-1.7,7.5-2.9-3.8,13.2-7.2,25.3-11,38.8,9.6-6.2,18.2-11.5,26.4-17.1C942.6,352.3,947.1,349.9,953.8,351.7Z" transform="translate(-363.4 -333.6)"/><path d="M989.8,364.1c-.4-4.3-2.2-7.9-7.2-8.3-6.6-.6-13.5-1.6-18.9,3.6s-3,7.6,2.6,8.9,11.8,1.8,17.7,3.2c8.8,2,11.2,7.6,6.3,15.3a19.6,19.6,0,0,1-7.4,6.9c-9,4.6-18.7,4.8-28.1,1.7-3-.9-5.9-4.3-7.1-7.3-1.9-4.8.1-6.5,5.6-6.2,2.3,8.3,4,9.7,13.1,9.6a57.7,57.7,0,0,0,11.8-1.4,10.8,10.8,0,0,0,5.5-3.9c3.3-4,2.1-7.5-3-8.8s-8.2-1.4-12.3-2c-1.3-.2-2.6-.3-3.9-.6-4-1-8.7-1.5-9.8-6.3s1.1-9.4,4.8-12.8c6.7-6.3,23.6-8.3,31.5-3.5a12.6,12.6,0,0,1,4.7,6C997.3,363.4,995.8,364.8,989.8,364.1Z" transform="translate(-363.4 -333.6)"/><path d="M830.6,397.1c-16.6.1-23.9-10.1-18.5-25.7s23.1-25,39.7-20.7c7.4,1.9,11.7,7.3,12,14.9C864.3,382.8,849.2,397.1,830.6,397.1Zm1.3-5.6c12.5.1,22.2-8,24.7-20.6,1.7-8.5-2.8-14.5-11.5-15.4a24.7,24.7,0,0,0-26.9,17.9C814.9,384.5,820.2,391.5,831.9,391.5Z" transform="translate(-363.4 -333.6)"/><path d="M608.6,351.9c-.3,1.7-.7,3.4-1.1,5.9,6.8-5.4,13.8-8.3,22-8.1,11.4.4,15.9,5.7,13.2,16.6-2.1,8.9-5,17.7-7.3,26.6-1.1,4.1-4,2.9-7.5,2.7l4.6-16.1c1.3-4.6,2.7-9.1,3.8-13.8s-1.2-9.5-7.4-10.2c-13-1.5-22.4,4.6-26,17-1.8,6.2-3.5,12.4-5.3,18.5s-1.6,5.4-7.9,4.2c4-13.9,7.8-27.9,12.1-41.6.5-1.6,3.8-2.2,5.8-3.3Z" transform="translate(-363.4 -333.6)"/><path d="M713.9,356.6l-9-.4c-.5-4.1,1.3-5.7,5.1-5.1s6.6-.9,7.1-5.2c.1-1.5,1-2.9,1.2-4.3.4-4.8,3.2-5.4,7.7-4.1-1.2,4.2-2.3,8.5-3.5,13.3h12.3c-2.1,9.4-9.5,3.4-14.4,6.8-2.5,8.8-5.4,18.8-8.1,28.9-.9,3,.9,4.3,3.7,4.5s4.6,0,7.1,0c.3,4-1.6,5.6-5.4,5.4h-2.5c-9.7,0-11.8-2.8-9.2-12.2Z" transform="translate(-363.4 -333.6)"/><path d="M863.8,395.2l8.7-30.9c.8-2.8,2-5.6,2.5-8.4.7-4.6,3-5.8,7.6-4.3-.5,2.3-.9,4.6-1.6,8,6.6-7.2,13.6-10.8,23.4-9.5-.6,2.2-1.1,4.1-1.5,5.9-.6.2-.9.5-1.2.5-15.5,0-21.3,4.4-25.6,19.2-1.5,5.2-3.3,10.3-4.5,15.6S868.6,396.7,863.8,395.2Z" transform="translate(-363.4 -333.6)"/></svg>