<svg width="448" height="458" viewBox="0 0 448 458" fill="none" xmlns="http://www.w3.org/2000/svg">
<rect width="448" height="458" fill="#5B2470"/>
<path d="M438.218 5H0V443.218H438.218V5Z" fill="#5B2470"/>
<path opacity="0.7" d="M359.965 55.8646H78.2533C63.1269 55.8646 50.8646 68.1269 50.8646 83.2533V364.965C50.8646 380.091 63.1269 392.354 78.2533 392.354H359.965C375.091 392.354 387.354 380.091 387.354 364.965V83.2533C387.354 68.1269 375.091 55.8646 359.965 55.8646Z" stroke="#9B5FC0" stroke-width="1.46725"/>
<path d="M50.8646 166.397C53.5657 166.397 55.7554 164.208 55.7554 161.507C55.7554 158.805 53.5657 156.616 50.8646 156.616C48.1635 156.616 45.9738 158.805 45.9738 161.507C45.9738 164.208 48.1635 166.397 50.8646 166.397Z" fill="#C8A0DC"/>
<path d="M50.8646 291.603C53.5657 291.603 55.7554 289.413 55.7554 286.712C55.7554 284.011 53.5657 281.821 50.8646 281.821C48.1635 281.821 45.9738 284.011 45.9738 286.712C45.9738 289.413 48.1635 291.603 50.8646 291.603Z" fill="#C8A0DC"/>
<path d="M387.354 166.397C390.055 166.397 392.245 164.208 392.245 161.507C392.245 158.805 390.055 156.616 387.354 156.616C384.653 156.616 382.463 158.805 382.463 161.507C382.463 164.208 384.653 166.397 387.354 166.397Z" fill="#C8A0DC"/>
<path d="M387.354 291.603C390.055 291.603 392.245 289.413 392.245 286.712C392.245 284.011 390.055 281.821 387.354 281.821C384.653 281.821 382.463 284.011 382.463 286.712C382.463 289.413 384.653 291.603 387.354 291.603Z" fill="#C8A0DC"/>
<path d="M156.507 60.7554C159.208 60.7554 161.397 58.5657 161.397 55.8646C161.397 53.1635 159.208 50.9738 156.507 50.9738C153.805 50.9738 151.616 53.1635 151.616 55.8646C151.616 58.5657 153.805 60.7554 156.507 60.7554Z" fill="#C8A0DC"/>
<path d="M281.712 60.7554C284.413 60.7554 286.603 58.5657 286.603 55.8646C286.603 53.1635 284.413 50.9738 281.712 50.9738C279.011 50.9738 276.821 53.1635 276.821 55.8646C276.821 58.5657 279.011 60.7554 281.712 60.7554Z" fill="#C8A0DC"/>
<path d="M156.507 397.245C159.208 397.245 161.397 395.055 161.397 392.354C161.397 389.653 159.208 387.463 156.507 387.463C153.805 387.463 151.616 389.653 151.616 392.354C151.616 395.055 153.805 397.245 156.507 397.245Z" fill="#C8A0DC"/>
<path d="M281.712 397.245C284.413 397.245 286.603 395.055 286.603 392.354C286.603 389.653 284.413 387.463 281.712 387.463C279.011 387.463 276.821 389.653 276.821 392.354C276.821 395.055 279.011 397.245 281.712 397.245Z" fill="#C8A0DC"/>
<path d="M144.769 122.38H74.3406C72.1797 122.38 70.428 124.132 70.428 126.293V177.157C70.428 179.318 72.1797 181.07 74.3406 181.07H144.769C146.929 181.07 148.681 179.318 148.681 177.157V126.293C148.681 124.132 146.929 122.38 144.769 122.38Z" fill="#C8A0DC"/>
<path d="M97.8167 139.987V163.463L119.336 151.725L97.8167 139.987Z" fill="#5B2470"/>
<path d="M144.769 231.934H74.3406C72.1797 231.934 70.428 233.686 70.428 235.847V290.624C70.428 292.785 72.1797 294.537 74.3406 294.537H144.769C146.929 294.537 148.681 292.785 148.681 290.624V235.847C148.681 233.686 146.929 231.934 144.769 231.934Z" fill="#3D1454"/>
<path opacity="0.7" d="M135.965 245.629H83.1441C82.6038 245.629 82.1659 246.067 82.1659 246.607V249.541C82.1659 250.082 82.6038 250.52 83.1441 250.52H135.965C136.505 250.52 136.943 250.082 136.943 249.541V246.607C136.943 246.067 136.505 245.629 135.965 245.629Z" fill="#C8A0DC"/>
<path opacity="0.7" d="M135.965 256.389H83.1441C82.6038 256.389 82.1659 256.827 82.1659 257.367V260.301C82.1659 260.842 82.6038 261.28 83.1441 261.28H135.965C136.505 261.28 136.943 260.842 136.943 260.301V257.367C136.943 256.827 136.505 256.389 135.965 256.389Z" fill="#C8A0DC"/>
<path opacity="0.5" d="M120.314 267.148H83.1441C82.6038 267.148 82.1659 267.586 82.1659 268.127V271.061C82.1659 271.601 82.6038 272.039 83.1441 272.039H120.314C120.855 272.039 121.293 271.601 121.293 271.061V268.127C121.293 267.586 120.855 267.148 120.314 267.148Z" fill="#C8A0DC"/>
<path opacity="0.5" d="M128.14 277.908H83.1441C82.6038 277.908 82.1659 278.346 82.1659 278.886V281.821C82.1659 282.361 82.6038 282.799 83.1441 282.799H128.14C128.68 282.799 129.118 282.361 129.118 281.821V278.886C129.118 278.346 128.68 277.908 128.14 277.908Z" fill="#C8A0DC"/>
<path d="M148.681 151.725H176.07V224.109H205.415" stroke="#9B5FC0" stroke-width="1.46725" stroke-linecap="round" stroke-linejoin="round"/>
<path d="M176.07 155.638C178.231 155.638 179.983 153.886 179.983 151.725C179.983 149.564 178.231 147.812 176.07 147.812C173.909 147.812 172.157 149.564 172.157 151.725C172.157 153.886 173.909 155.638 176.07 155.638Z" fill="#9B5FC0"/>
<path d="M148.681 263.236H185.852V237.803H205.415" stroke="#9B5FC0" stroke-width="1.46725" stroke-linecap="round" stroke-linejoin="round"/>
<path d="M185.852 267.148C188.012 267.148 189.764 265.397 189.764 263.236C189.764 261.075 188.012 259.323 185.852 259.323C183.691 259.323 181.939 261.075 181.939 263.236C181.939 265.397 183.691 267.148 185.852 267.148Z" fill="#9B5FC0"/>
<path d="M158.463 154.17C159.813 154.17 160.908 153.076 160.908 151.725C160.908 150.374 159.813 149.28 158.463 149.28C157.112 149.28 156.017 150.374 156.017 151.725C156.017 153.076 157.112 154.17 158.463 154.17Z" fill="#C8A0DC"/>
<path d="M167.266 154.17C168.617 154.17 169.712 153.076 169.712 151.725C169.712 150.374 168.617 149.28 167.266 149.28C165.916 149.28 164.821 150.374 164.821 151.725C164.821 153.076 165.916 154.17 167.266 154.17Z" fill="#C8A0DC"/>
<path d="M158.463 265.681C159.813 265.681 160.908 264.586 160.908 263.236C160.908 261.885 159.813 260.79 158.463 260.79C157.112 260.79 156.017 261.885 156.017 263.236C156.017 264.586 157.112 265.681 158.463 265.681Z" fill="#C8A0DC"/>
<path d="M167.266 265.681C168.617 265.681 169.712 264.586 169.712 263.236C169.712 261.885 168.617 260.79 167.266 260.79C165.916 260.79 164.821 261.885 164.821 263.236C164.821 264.586 165.916 265.681 167.266 265.681Z" fill="#C8A0DC"/>
<path d="M285.624 194.764H211.284C208.042 194.764 205.415 197.392 205.415 200.633V274.974C205.415 278.215 208.042 280.843 211.284 280.843H285.624C288.866 280.843 291.493 278.215 291.493 274.974V200.633C291.493 197.392 288.866 194.764 285.624 194.764Z" fill="#3D1454"/>
<path opacity="0.6" d="M283.668 198.677H213.24C211.079 198.677 209.328 200.429 209.328 202.59V273.017C209.328 275.178 211.079 276.93 213.24 276.93H283.668C285.829 276.93 287.581 275.178 287.581 273.017V202.59C287.581 200.429 285.829 198.677 283.668 198.677Z" stroke="#9B5FC0" stroke-width="0.978166"/>
<path d="M228.891 226.066C231.052 226.066 232.803 224.314 232.803 222.153C232.803 219.992 231.052 218.24 228.891 218.24C226.73 218.24 224.978 219.992 224.978 222.153C224.978 224.314 226.73 226.066 228.891 226.066Z" fill="#C8A0DC"/>
<path opacity="0.6" d="M248.454 226.066C250.615 226.066 252.367 224.314 252.367 222.153C252.367 219.992 250.615 218.24 248.454 218.24C246.293 218.24 244.542 219.992 244.542 222.153C244.542 224.314 246.293 226.066 248.454 226.066Z" fill="#C8A0DC"/>
<path d="M268.017 226.066C270.178 226.066 271.93 224.314 271.93 222.153C271.93 219.992 270.178 218.24 268.017 218.24C265.856 218.24 264.105 219.992 264.105 222.153C264.105 224.314 265.856 226.066 268.017 226.066Z" fill="#C8A0DC"/>
<path opacity="0.6" d="M228.891 241.716C231.052 241.716 232.803 239.964 232.803 237.804C232.803 235.643 231.052 233.891 228.891 233.891C226.73 233.891 224.978 235.643 224.978 237.804C224.978 239.964 226.73 241.716 228.891 241.716Z" fill="#C8A0DC"/>
<path d="M248.454 243.183C251.425 243.183 253.834 240.775 253.834 237.803C253.834 234.832 251.425 232.424 248.454 232.424C245.483 232.424 243.074 234.832 243.074 237.803C243.074 240.775 245.483 243.183 248.454 243.183Z" fill="#DDC0F0"/>
<path opacity="0.6" d="M268.017 241.716C270.178 241.716 271.93 239.964 271.93 237.804C271.93 235.643 270.178 233.891 268.017 233.891C265.856 233.891 264.105 235.643 264.105 237.804C264.105 239.964 265.856 241.716 268.017 241.716Z" fill="#C8A0DC"/>
<path d="M228.891 257.367C231.052 257.367 232.803 255.615 232.803 253.454C232.803 251.293 231.052 249.542 228.891 249.542C226.73 249.542 224.978 251.293 224.978 253.454C224.978 255.615 226.73 257.367 228.891 257.367Z" fill="#C8A0DC"/>
<path opacity="0.6" d="M248.454 257.367C250.615 257.367 252.367 255.615 252.367 253.454C252.367 251.293 250.615 249.542 248.454 249.542C246.293 249.542 244.542 251.293 244.542 253.454C244.542 255.615 246.293 257.367 248.454 257.367Z" fill="#C8A0DC"/>
<path d="M268.017 257.367C270.178 257.367 271.93 255.615 271.93 253.454C271.93 251.293 270.178 249.542 268.017 249.542C265.856 249.542 264.105 251.293 264.105 253.454C264.105 255.615 265.856 257.367 268.017 257.367Z" fill="#C8A0DC"/>
<path opacity="0.7" d="M232.803 222.153H244.541" stroke="#9B5FC0" stroke-width="0.782533"/>
<path opacity="0.7" d="M252.367 222.153H264.105" stroke="#9B5FC0" stroke-width="0.782533"/>
<path d="M232.803 237.803H242.585" stroke="#DDC0F0" stroke-width="0.978166"/>
<path d="M254.323 237.803H264.105" stroke="#DDC0F0" stroke-width="0.978166"/>
<path opacity="0.7" d="M232.803 253.454H244.541" stroke="#9B5FC0" stroke-width="0.782533"/>
<path opacity="0.7" d="M252.367 253.454H264.105" stroke="#9B5FC0" stroke-width="0.782533"/>
<path opacity="0.5" d="M228.891 226.066V249.542" stroke="#9B5FC0" stroke-width="0.782533"/>
<path d="M248.454 226.066V231.935" stroke="#DDC0F0" stroke-width="0.978166"/>
<path d="M248.454 243.672V249.541" stroke="#DDC0F0" stroke-width="0.978166"/>
<path opacity="0.5" d="M268.017 226.066V249.542" stroke="#9B5FC0" stroke-width="0.782533"/>
<path opacity="0.4" d="M232.803 225.087L244.541 234.869" stroke="#9B5FC0" stroke-width="0.5869"/>
<path opacity="0.4" d="M252.367 234.869L264.105 225.087" stroke="#9B5FC0" stroke-width="0.5869"/>
<path opacity="0.4" d="M232.803 240.738L244.541 250.52" stroke="#9B5FC0" stroke-width="0.5869"/>
<path opacity="0.4" d="M252.367 250.52L264.105 240.738" stroke="#9B5FC0" stroke-width="0.5869"/>
<path d="M291.493 218.24H311.057V171.288H340.402" stroke="#9B5FC0" stroke-width="1.46725" stroke-linecap="round" stroke-linejoin="round"/>
<path d="M311.057 222.153C313.218 222.153 314.969 220.401 314.969 218.24C314.969 216.079 313.218 214.328 311.057 214.328C308.896 214.328 307.144 216.079 307.144 218.24C307.144 220.401 308.896 222.153 311.057 222.153Z" fill="#9B5FC0"/>
<path d="M291.493 257.367H320.838V298.45H340.402" stroke="#9B5FC0" stroke-width="1.46725" stroke-linecap="round" stroke-linejoin="round"/>
<path d="M320.838 261.279C322.999 261.279 324.751 259.528 324.751 257.367C324.751 255.206 322.999 253.454 320.838 253.454C318.678 253.454 316.926 255.206 316.926 257.367C316.926 259.528 318.678 261.279 320.838 261.279Z" fill="#9B5FC0"/>
<path d="M303.231 220.686C304.582 220.686 305.677 219.591 305.677 218.24C305.677 216.89 304.582 215.795 303.231 215.795C301.881 215.795 300.786 216.89 300.786 218.24C300.786 219.591 301.881 220.686 303.231 220.686Z" fill="#C8A0DC"/>
<path opacity="0.5" d="M313.013 220.686C314.364 220.686 315.458 219.591 315.458 218.24C315.458 216.89 314.364 215.795 313.013 215.795C311.662 215.795 310.568 216.89 310.568 218.24C310.568 219.591 311.662 220.686 313.013 220.686Z" fill="#C8A0DC"/>
<path d="M305.188 259.812C306.538 259.812 307.633 258.717 307.633 257.367C307.633 256.016 306.538 254.921 305.188 254.921C303.837 254.921 302.742 256.016 302.742 257.367C302.742 258.717 303.837 259.812 305.188 259.812Z" fill="#C8A0DC"/>
<path opacity="0.5" d="M313.991 259.812C315.342 259.812 316.437 258.717 316.437 257.367C316.437 256.016 315.342 254.921 313.991 254.921C312.641 254.921 311.546 256.016 311.546 257.367C311.546 258.717 312.641 259.812 313.991 259.812Z" fill="#C8A0DC"/>
<path d="M361.921 194.764C380.289 194.764 395.179 179.874 395.179 161.507C395.179 143.139 380.289 128.249 361.921 128.249C343.554 128.249 328.664 143.139 328.664 161.507C328.664 179.874 343.554 194.764 361.921 194.764Z" fill="#C8A0DC"/>
<path d="M361.921 179.114C371.646 179.114 379.528 171.231 379.528 161.507C379.528 151.782 371.646 143.9 361.921 143.9C352.197 143.9 344.314 151.782 344.314 161.507C344.314 171.231 352.197 179.114 361.921 179.114Z" fill="#5B2470"/>
<path d="M361.921 168.354C365.703 168.354 368.769 165.288 368.769 161.507C368.769 157.725 365.703 154.659 361.921 154.659C358.14 154.659 355.074 157.725 355.074 161.507C355.074 165.288 358.14 168.354 361.921 168.354Z" fill="#C8A0DC"/>
<path d="M410.83 273.017H344.314C342.153 273.017 340.402 274.769 340.402 276.93V319.969C340.402 322.13 342.153 323.882 344.314 323.882H410.83C412.991 323.882 414.742 322.13 414.742 319.969V276.93C414.742 274.769 412.991 273.017 410.83 273.017Z" fill="#3D1454"/>
<path d="M356.052 303.341L365.834 313.122" stroke="#C8A0DC" stroke-width="2.44541" stroke-linecap="round"/>
<path d="M365.834 313.122L399.092 283.777" stroke="#C8A0DC" stroke-width="2.44541" stroke-linecap="round"/>
<path d="M109.555 181.07V231.934" stroke="#9B5FC0" stroke-width="1.46725" stroke-linecap="round"/>
<path d="M109.555 210.415C111.716 210.415 113.467 208.663 113.467 206.502C113.467 204.341 111.716 202.589 109.555 202.589C107.394 202.589 105.642 204.341 105.642 206.502C105.642 208.663 107.394 210.415 109.555 210.415Z" fill="#9B5FC0"/>
<path d="M50.8646 161.507H70.4279V151.725" stroke="#9B5FC0" stroke-width="1.46725" stroke-linecap="round" stroke-linejoin="round"/>
<path opacity="0.5" d="M248.454 194.764V122.38H281.712V55.8646" stroke="#9B5FC0" stroke-width="1.46725" stroke-linecap="round" stroke-linejoin="round"/>
<path opacity="0.6" d="M248.454 145.856C250.615 145.856 252.367 144.104 252.367 141.943C252.367 139.782 250.615 138.031 248.454 138.031C246.293 138.031 244.542 139.782 244.542 141.943C244.542 144.104 246.293 145.856 248.454 145.856Z" fill="#9B5FC0"/>
<path opacity="0.5" d="M248.454 280.843V347.358H281.712V392.354" stroke="#9B5FC0" stroke-width="1.46725" stroke-linecap="round" stroke-linejoin="round"/>
<path opacity="0.6" d="M248.454 321.926C250.615 321.926 252.367 320.174 252.367 318.013C252.367 315.852 250.615 314.1 248.454 314.1C246.293 314.1 244.542 315.852 244.542 318.013C244.542 320.174 246.293 321.926 248.454 321.926Z" fill="#9B5FC0"/>
<path opacity="0.5" d="M387.354 161.507H412.786" stroke="#9B5FC0" stroke-width="1.46725" stroke-linecap="round"/>
<path opacity="0.5" d="M405.939 165.419C408.1 165.419 409.851 163.667 409.851 161.507C409.851 159.346 408.1 157.594 405.939 157.594C403.778 157.594 402.026 159.346 402.026 161.507C402.026 163.667 403.778 165.419 405.939 165.419Z" fill="#9B5FC0"/>
<path opacity="0.5" d="M387.354 286.712H412.786" stroke="#9B5FC0" stroke-width="1.46725" stroke-linecap="round"/>
<path opacity="0.5" d="M405.939 290.624C408.1 290.624 409.851 288.873 409.851 286.712C409.851 284.551 408.1 282.799 405.939 282.799C403.778 282.799 402.026 284.551 402.026 286.712C402.026 288.873 403.778 290.624 405.939 290.624Z" fill="#9B5FC0"/>
<path opacity="0.5" d="M50.8647 286.712H25.4324" stroke="#9B5FC0" stroke-width="1.46725" stroke-linecap="round"/>
<path opacity="0.5" d="M32.2795 290.624C34.4404 290.624 36.1921 288.873 36.1921 286.712C36.1921 284.551 34.4404 282.799 32.2795 282.799C30.1186 282.799 28.3668 284.551 28.3668 286.712C28.3668 288.873 30.1186 290.624 32.2795 290.624Z" fill="#9B5FC0"/>
</svg>
