<svg preserveAspectRatio="none" width="100%" height="100%" overflow="visible" style="display: block;" viewBox="0 0 14 14" fill="none" xmlns="http://www.w3.org/2000/svg">
<g id="Frame">
<path id="Vector" d="M12.25 12.25L9.21842 9.21842M9.21842 9.21842C10.0389 8.39791 10.4999 7.28507 10.4999 6.12471C10.4999 4.96434 10.0389 3.8515 9.21842 3.031C8.39791 2.2105 7.28507 1.74954 6.12471 1.74954C4.96434 1.74954 3.8515 2.2105 3.031 3.031C2.62473 3.43727 2.30246 3.91959 2.08258 4.45041C1.86271 4.98122 1.74954 5.55015 1.74954 6.12471C1.74954 6.69926 1.86271 7.26819 2.08258 7.79901C2.30246 8.32983 2.62473 8.81214 3.031 9.21842C3.43727 9.62469 3.91959 9.94696 4.45041 10.1668C4.98122 10.3867 5.55015 10.4999 6.12471 10.4999C6.69926 10.4999 7.26819 10.3867 7.79901 10.1668C8.32983 9.94696 8.81215 9.62469 9.21842 9.21842Z" stroke="var(--stroke-0, #007890)" stroke-width="0.875" stroke-linecap="round" stroke-linejoin="round"/>
</g>
</svg>
