<svg preserveAspectRatio="none" width="100%" height="100%" overflow="visible" style="display: block;" viewBox="0 0 20 20" fill="none" xmlns="http://www.w3.org/2000/svg">
<g id="Frame">
<path id="Vector" d="M8.8125 13.1458L14.5833 7.375L13.6875 6.47917L8.8125 11.3542L6.29167 8.83333L5.41667 9.70833L8.8125 13.1458ZM3.75 17.5C3.40625 17.5 3.11201 17.3776 2.86729 17.1327C2.62243 16.888 2.5 16.5938 2.5 16.25V3.75C2.5 3.40625 2.62243 3.11194 2.86729 2.86708C3.11201 2.62236 3.40625 2.5 3.75 2.5H8.02083C8.09028 2.01389 8.3125 1.61458 8.6875 1.30208C9.0625 0.989583 9.5 0.833333 10 0.833333C10.5 0.833333 10.9375 0.989583 11.3125 1.30208C11.6875 1.61458 11.9097 2.01389 11.9792 2.5H16.25C16.5938 2.5 16.8881 2.62236 17.1329 2.86708C17.3776 3.11194 17.5 3.40625 17.5 3.75V16.25C17.5 16.5938 17.3776 16.888 17.1329 17.1327C16.8881 17.3776 16.5938 17.5 16.25 17.5H3.75ZM3.75 16.25H16.25V3.75H3.75V16.25ZM10.5104 3.17708C10.6563 3.03125 10.7292 2.86111 10.7292 2.66667C10.7292 2.47222 10.6563 2.30208 10.5104 2.15625C10.3646 2.01042 10.1944 1.9375 10 1.9375C9.80556 1.9375 9.63542 2.01042 9.48958 2.15625C9.34375 2.30208 9.27083 2.47222 9.27083 2.66667C9.27083 2.86111 9.34375 3.03125 9.48958 3.17708C9.63542 3.32292 9.80556 3.39583 10 3.39583C10.1944 3.39583 10.3646 3.32292 10.5104 3.17708Z" fill="var(--fill-0, #2D6B4F)"/>
</g>
</svg>
