<svg preserveAspectRatio="none" width="100%" height="100%" overflow="visible" style="display: block;" viewBox="0 0 14 14" fill="none" xmlns="http://www.w3.org/2000/svg">
<g id="Frame">
<path id="Vector" d="M11.375 8.3125V6.78125C11.375 6.25911 11.1676 5.75835 10.7984 5.38913C10.4292 5.01992 9.92839 4.8125 9.40625 4.8125H8.53125C8.3572 4.8125 8.19028 4.74336 8.06721 4.62029C7.94414 4.49722 7.875 4.3303 7.875 4.15625V3.28125C7.875 2.75911 7.66758 2.25835 7.29837 1.88913C6.92915 1.51992 6.4284 1.3125 5.90625 1.3125H4.8125M4.8125 8.75H9.1875M4.8125 10.5H7M6.125 1.3125H3.28125C2.919 1.3125 2.625 1.6065 2.625 1.96875V12.0312C2.625 12.3935 2.919 12.6875 3.28125 12.6875H10.7187C11.081 12.6875 11.375 12.3935 11.375 12.0312V9.625C11.375 8.23261 10.8219 6.89726 9.83731 5.91269C8.85274 4.92812 7.51739 4.375 6.125 4.375V1.3125Z" stroke="var(--stroke-0, #007890)" stroke-width="0.875" stroke-linecap="round" stroke-linejoin="round"/>
</g>
</svg>
