<svg preserveAspectRatio="none" width="100%" height="100%" overflow="visible" style="display: block;" viewBox="0 0 20 20" fill="none" xmlns="http://www.w3.org/2000/svg">
<g id="Frame">
<path id="Vector" d="M6.98958 14.4871C7.19097 14.284 7.29167 14.0375 7.29167 13.7475C7.29167 13.4575 7.19014 13.2118 6.98708 13.0104C6.78403 12.809 6.5375 12.7083 6.2475 12.7083C5.9575 12.7083 5.71181 12.8099 5.51042 13.0129C5.30903 13.216 5.20833 13.4625 5.20833 13.7525C5.20833 14.0425 5.30986 14.2882 5.51292 14.4896C5.71597 14.691 5.9625 14.7917 6.2525 14.7917C6.5425 14.7917 6.78819 14.6901 6.98958 14.4871ZM6.98958 6.98708C7.19097 6.78403 7.29167 6.5375 7.29167 6.2475C7.29167 5.9575 7.19014 5.71181 6.98708 5.51042C6.78403 5.30903 6.5375 5.20833 6.2475 5.20833C5.9575 5.20833 5.71181 5.30986 5.51042 5.51292C5.30903 5.71597 5.20833 5.9625 5.20833 6.2525C5.20833 6.5425 5.30986 6.78819 5.51292 6.98958C5.71597 7.19097 5.9625 7.29167 6.2525 7.29167C6.5425 7.29167 6.78819 7.19014 6.98958 6.98708ZM10.7396 10.7371C10.941 10.534 11.0417 10.2875 11.0417 9.9975C11.0417 9.7075 10.9401 9.46181 10.7371 9.26042C10.534 9.05903 10.2875 8.95833 9.9975 8.95833C9.7075 8.95833 9.46181 9.05986 9.26042 9.26292C9.05903 9.46597 8.95833 9.7125 8.95833 10.0025C8.95833 10.2925 9.05986 10.5382 9.26292 10.7396C9.46597 10.941 9.7125 11.0417 10.0025 11.0417C10.2925 11.0417 10.5382 10.9401 10.7396 10.7371ZM14.4896 14.4871C14.691 14.284 14.7917 14.0375 14.7917 13.7475C14.7917 13.4575 14.6901 13.2118 14.4871 13.0104C14.284 12.809 14.0375 12.7083 13.7475 12.7083C13.4575 12.7083 13.2118 12.8099 13.0104 13.0129C12.809 13.216 12.7083 13.4625 12.7083 13.7525C12.7083 14.0425 12.8099 14.2882 13.0129 14.4896C13.216 14.691 13.4625 14.7917 13.7525 14.7917C14.0425 14.7917 14.2882 14.6901 14.4896 14.4871ZM14.4896 6.98708C14.691 6.78403 14.7917 6.5375 14.7917 6.2475C14.7917 5.9575 14.6901 5.71181 14.4871 5.51042C14.284 5.30903 14.0375 5.20833 13.7475 5.20833C13.4575 5.20833 13.2118 5.30986 13.0104 5.51292C12.809 5.71597 12.7083 5.9625 12.7083 6.2525C12.7083 6.5425 12.8099 6.78819 13.0129 6.98958C13.216 7.19097 13.4625 7.29167 13.7525 7.29167C14.0425 7.29167 14.2882 7.19014 14.4896 6.98708ZM3.75 17.5C3.41667 17.5 3.125 17.375 2.875 17.125C2.625 16.875 2.5 16.5833 2.5 16.25V3.75C2.5 3.41667 2.625 3.125 2.875 2.875C3.125 2.625 3.41667 2.5 3.75 2.5H16.25C16.5833 2.5 16.875 2.625 17.125 2.875C17.375 3.125 17.5 3.41667 17.5 3.75V16.25C17.5 16.5833 17.375 16.875 17.125 17.125C16.875 17.375 16.5833 17.5 16.25 17.5H3.75ZM3.75 16.25H16.25V3.75H3.75V16.25Z" fill="var(--fill-0, #5A4D8C)"/>
</g>
</svg>
