<svg preserveAspectRatio="none" width="100%" height="100%" overflow="visible" style="display: block;" viewBox="0 0 16 16" fill="none" xmlns="http://www.w3.org/2000/svg">
<g id="Frame">
<path id="Vector" d="M2 8.75C2 8.336 2.336 8 2.75 8H4.25C4.664 8 5 8.336 5 8.75V11.5C5 11.914 4.664 12.25 4.25 12.25H2.75C2.55109 12.25 2.36032 12.171 2.21967 12.0303C2.07902 11.8897 2 11.6989 2 11.5V8.75ZM6.5 5.75C6.5 5.336 6.836 5 7.25 5H8.75C9.164 5 9.5 5.336 9.5 5.75V11.25C9.5 11.664 9.164 12 8.75 12H7.25C7.05109 12 6.86032 11.921 6.71967 11.7803C6.57902 11.6397 6.5 11.4489 6.5 11.25V5.75ZM11 2.75C11 2.336 11.336 2 11.75 2H13.25C13.664 2 14 2.336 14 2.75V11.25C14 11.664 13.664 12 13.25 12H11.75C11.5511 12 11.3603 11.921 11.2197 11.7803C11.079 11.6397 11 11.4489 11 11.25V2.75Z" stroke="var(--stroke-0, #007890)" stroke-linecap="round" stroke-linejoin="round"/>
</g>
</svg>
