<svg preserveAspectRatio="none" width="100%" height="100%" overflow="visible" style="display: block;" viewBox="0 0 18 18" fill="none" xmlns="http://www.w3.org/2000/svg">
<g id="Frame">
<path id="Vector" d="M7.92187 16.0594C7.62812 15.7656 7.48125 15.4063 7.48125 14.9813H10.5188C10.5188 15.4063 10.3719 15.7656 10.0781 16.0594C9.78438 16.3531 9.425 16.5 9 16.5C8.575 16.5 8.21562 16.3531 7.92187 16.0594ZM5.9625 13.8188V12.6938H12.0375V13.8188H5.9625ZM6.05625 11.55C5.23125 11.0125 4.57812 10.3406 4.09687 9.53438C3.61562 8.72813 3.375 7.81875 3.375 6.80625C3.375 5.28125 3.93125 3.9625 5.04375 2.85C6.15625 1.7375 7.475 1.18125 9 1.18125C10.525 1.18125 11.8438 1.7375 12.9563 2.85C14.0688 3.9625 14.625 5.28125 14.625 6.80625C14.625 7.81875 14.3875 8.72813 13.9125 9.53438C13.4375 10.3406 12.7813 11.0125 11.9438 11.55H6.05625ZM6.46875 10.425H11.55C12.15 10.025 12.625 9.50625 12.975 8.86875C13.325 8.23125 13.5 7.54375 13.5 6.80625C13.5 5.56875 13.0594 4.50937 12.1781 3.62812C11.2969 2.74687 10.2375 2.30625 9 2.30625C7.7625 2.30625 6.70312 2.74687 5.82187 3.62812C4.94062 4.50937 4.5 5.56875 4.5 6.80625C4.5 7.54375 4.675 8.23125 5.025 8.86875C5.375 9.50625 5.85625 10.025 6.46875 10.425Z" fill="var(--fill-0, #007890)"/>
</g>
</svg>
