<svg preserveAspectRatio="none" width="100%" height="100%" overflow="visible" style="display: block;" viewBox="0 0 14 14" fill="none" xmlns="http://www.w3.org/2000/svg">
<g id="Frame">
<path id="Vector" d="M1.3125 7.44333C1.3125 8.15267 1.9075 8.75817 2.625 8.75817H8.3125C8.48506 8.75817 8.65592 8.72414 8.81531 8.65804C8.9747 8.59193 9.1195 8.49504 9.2414 8.37292C9.36331 8.2508 9.45994 8.10583 9.52576 7.94632C9.59158 7.78681 9.62531 7.61589 9.625 7.44333V5.6875C9.62531 5.51494 9.59158 5.34402 9.52576 5.18451C9.45994 5.025 9.36331 4.88004 9.2414 4.75791C9.1195 4.63579 8.9747 4.5389 8.81531 4.4728C8.65592 4.40669 8.48506 4.37267 8.3125 4.37267H2.625C2.45244 4.37267 2.28158 4.40669 2.12219 4.4728C1.9628 4.5389 1.818 4.63579 1.6961 4.75791C1.57419 4.88004 1.47756 5.025 1.41174 5.18451C1.34592 5.34402 1.31219 5.51494 1.3125 5.6875V7.44333Z" stroke="var(--stroke-0, #007890)" stroke-width="0.875" stroke-linecap="round" stroke-linejoin="round"/>
</g>
</svg>
