<svg preserveAspectRatio="none" width="100%" height="100%" overflow="visible" style="display: block;" viewBox="0 0 20 20" fill="none" xmlns="http://www.w3.org/2000/svg">
<g id="Frame">
<path id="Vector" d="M7.5 2.08333V0.833333H12.5V2.08333H7.5ZM9.375 11.3958H10.625V6.60417H9.375V11.3958ZM7.09375 17.7188C6.18403 17.3229 5.38889 16.7847 4.70833 16.1042C4.02778 15.4236 3.48958 14.6285 3.09375 13.7188C2.69792 12.809 2.5 11.8403 2.5 10.8125C2.5 9.78472 2.69792 8.81597 3.09375 7.90625C3.48958 6.99653 4.02778 6.20139 4.70833 5.52083C5.38889 4.84028 6.18403 4.30208 7.09375 3.90625C8.00347 3.51042 8.97222 3.3125 10 3.3125C10.9306 3.3125 11.8056 3.46875 12.625 3.78125C13.4444 4.09375 14.1736 4.52778 14.8125 5.08333L15.875 4.02083L16.75 4.89583L15.6875 5.95833C16.1875 6.51389 16.6146 7.1875 16.9688 7.97917C17.3229 8.77083 17.5 9.71528 17.5 10.8125C17.5 11.8403 17.3021 12.809 16.9063 13.7188C16.5104 14.6285 15.9722 15.4236 15.2917 16.1042C14.6111 16.7847 13.816 17.3229 12.9063 17.7188C11.9965 18.1146 11.0278 18.3125 10 18.3125C8.97222 18.3125 8.00347 18.1146 7.09375 17.7188ZM14.4271 15.2396C15.6424 14.0243 16.25 12.5486 16.25 10.8125C16.25 9.07639 15.6424 7.60069 14.4271 6.38542C13.2118 5.17014 11.7361 4.5625 10 4.5625C8.26389 4.5625 6.78819 5.17014 5.57292 6.38542C4.35764 7.60069 3.75 9.07639 3.75 10.8125C3.75 12.5486 4.35764 14.0243 5.57292 15.2396C6.78819 16.4549 8.26389 17.0625 10 17.0625C11.7361 17.0625 13.2118 16.4549 14.4271 15.2396Z" fill="var(--fill-0, #0A5C6A)"/>
</g>
</svg>
